<?xml version="1.0" standalone="no"?>
<!DOCTYPE svg PUBLIC "-//W3C//DTD SVG 20010904//EN"
 "http://www.w3.org/TR/2001/REC-SVG-20010904/DTD/svg10.dtd">
<svg version="1.0" xmlns="http://www.w3.org/2000/svg"
 width="1987.000000pt" height="2560.000000pt" viewBox="0 0 1987.000000 2560.000000"
 preserveAspectRatio="xMidYMid meet">
<metadata>
Created by potrace 1.16, written by Peter Selinger 2001-2019
</metadata>
<g transform="translate(0.000000,2560.000000) scale(0.100000,-0.100000)"
fill="#000000" stroke="none">
<path d="M9855 17050 c-151 -9 -196 -14 -425 -51 -187 -30 -516 -114 -670
-170 -252 -92 -609 -266 -812 -397 -179 -114 -428 -298 -483 -356 -5 -6 -48
-45 -95 -86 -101 -90 -255 -248 -336 -345 -32 -38 -61 -72 -64 -75 -3 -3 -21
-25 -40 -50 -19 -25 -37 -47 -40 -50 -34 -31 -231 -327 -303 -455 -142 -254
-318 -651 -358 -809 -6 -25 -14 -46 -18 -46 -4 0 -61 7 -126 15 -172 21 -338
20 -414 -4 -122 -38 -232 -135 -270 -237 -25 -66 -25 -68 -5 -88 23 -24 31
-20 45 22 26 81 113 177 200 223 84 45 316 37 699 -21 36 -5 130 -19 210 -30
80 -12 174 -27 210 -35 36 -8 144 -22 240 -30 96 -9 198 -21 225 -25 28 -5 79
-12 115 -15 36 -4 137 -15 225 -25 88 -11 205 -24 260 -30 55 -5 143 -14 195
-19 90 -10 168 -15 617 -42 175 -11 195 -10 218 5 15 10 25 26 25 40 0 24 0
24 -162 30 -455 18 -700 35 -1098 77 -230 23 -240 25 -240 43 0 33 165 368
254 516 50 83 200 299 234 336 9 10 33 39 52 64 195 251 581 555 928 729 177
89 474 190 677 230 216 43 348 55 625 55 344 1 498 -23 850 -127 300 -90 701
-306 975 -526 112 -89 372 -361 442 -461 93 -133 198 -293 245 -375 57 -98
203 -394 197 -399 -13 -14 -672 -75 -1139 -106 -85 -6 -213 -15 -285 -20 -71
-6 -149 -10 -172 -10 -35 0 -43 -3 -43 -19 0 -13 10 -20 31 -25 64 -12 763 -6
969 9 299 22 449 35 590 51 69 8 165 19 213 24 181 21 404 50 447 60 66 13
200 29 315 36 138 8 280 29 480 71 263 55 348 40 466 -81 33 -33 73 -84 89
-113 17 -29 35 -53 40 -53 31 0 -18 131 -74 197 -38 46 -111 88 -200 118 -72
24 -90 26 -185 22 -58 -3 -153 -11 -211 -17 -58 -7 -125 -13 -150 -13 l-44 -2
-37 110 c-54 163 -111 300 -205 490 -89 181 -137 270 -160 296 -8 8 -14 19
-14 23 0 4 -8 19 -19 34 -10 15 -35 54 -57 87 -21 33 -96 137 -166 232 -267
358 -623 689 -1018 945 -482 314 -1013 516 -1595 607 -254 40 -600 56 -870 41z
m640 -121 c317 -27 691 -113 1020 -236 73 -27 87 -33 245 -104 160 -71 452
-229 480 -259 3 -3 25 -19 50 -35 51 -34 253 -178 289 -207 104 -81 404 -373
527 -513 75 -85 194 -240 261 -340 22 -33 63 -94 90 -135 28 -41 72 -115 98
-165 26 -49 65 -121 85 -160 57 -105 152 -324 199 -461 42 -125 48 -154 31
-154 -20 0 -375 -40 -485 -55 -60 -8 -176 -22 -258 -31 -174 -20 -156 -30
-213 116 -48 124 -152 326 -247 477 -258 416 -642 783 -1043 999 -299 160
-514 244 -815 318 -371 90 -898 101 -1264 26 -511 -105 -954 -312 -1330 -624
-101 -84 -122 -103 -229 -211 -275 -279 -504 -621 -646 -965 -67 -162 -66
-157 -44 -181 19 -21 19 -21 -16 -15 -117 19 -268 36 -350 41 -52 2 -117 9
-145 15 -86 18 -235 40 -360 52 -66 6 -122 13 -124 15 -3 2 2 9 11 16 9 6 23
37 33 67 94 304 276 682 454 945 71 105 238 324 299 392 16 18 58 65 93 104
97 109 135 148 238 240 51 46 110 99 130 117 77 69 263 206 451 332 105 71
302 172 565 290 98 44 299 114 505 175 73 21 367 80 505 100 235 34 612 40
910 14z"/>
<path d="M10192 16739 c-57 -17 -95 -105 -73 -172 6 -18 43 -66 81 -105 59
-61 70 -77 70 -106 0 -31 -20 -66 -38 -66 -21 0 -51 34 -56 65 -6 32 -10 35
-41 35 -29 0 -36 -4 -41 -25 -3 -14 -4 -34 -1 -45 5 -19 0 -20 -78 -20 l-82 0
-7 46 c-3 26 -6 60 -6 75 0 29 0 29 65 29 l65 0 0 35 0 35 -65 0 -65 0 0 63 0
64 73 9 72 9 3 39 3 38 -65 -6 c-36 -3 -96 -9 -132 -12 l-66 -7 5 -46 c4 -25
14 -137 23 -248 l17 -203 71 0 c39 0 94 3 123 6 52 7 52 7 46 38 l-6 31 38
-30 c32 -24 51 -30 100 -33 74 -4 104 11 129 62 17 34 17 44 6 93 -10 48 -21
64 -86 129 -80 79 -89 103 -55 145 16 20 23 22 38 13 10 -6 23 -20 28 -31 27
-53 60 -68 85 -38 34 41 -10 116 -79 135 -42 12 -55 11 -99 -1z"/>
<path d="M10447 16713 c-3 -5 -12 -64 -21 -133 -9 -69 -24 -176 -33 -239 -17
-126 -16 -131 43 -131 l31 0 12 88 c47 327 52 406 25 416 -22 8 -52 8 -57 -1z"/>
<path d="M9558 16688 c-20 -11 -44 -35 -54 -53 -16 -31 -16 -38 9 -187 14 -85
27 -161 29 -168 3 -15 -50 -28 -113 -29 -35 -1 -36 0 -52 59 -22 79 -22 80 16
80 63 0 77 9 77 47 l0 35 -62 -3 c-35 -2 -68 0 -74 4 -7 4 -15 28 -19 53 -3
26 -9 53 -12 60 -4 11 6 14 40 14 24 0 59 3 76 6 27 6 31 11 31 40 0 18 -3 35
-7 37 -11 6 -160 -17 -211 -33 -32 -10 -41 -17 -37 -29 4 -9 19 -63 35 -121
16 -58 35 -125 43 -150 8 -25 23 -78 33 -117 10 -40 23 -73 30 -73 52 0 210
32 225 46 18 16 21 16 58 -1 106 -47 222 43 195 153 -9 36 -10 37 -54 34 -24
-2 -45 -4 -46 -5 -2 -1 2 -21 9 -44 14 -52 -1 -75 -47 -71 -29 3 -32 7 -49 73
-22 89 -40 240 -33 270 14 55 64 34 85 -35 11 -36 15 -40 45 -40 52 0 63 21
40 78 -36 86 -125 117 -206 70z"/>
<path d="M10577 16688 c-11 -40 -8 -45 34 -51 22 -3 43 -8 46 -11 3 -3 -13
-91 -35 -195 -23 -104 -42 -197 -42 -205 0 -16 37 -36 64 -36 18 0 88 265 98
370 3 34 4 35 52 38 51 3 75 21 76 53 0 12 -23 20 -102 34 -172 30 -184 31
-191 3z"/>
<path d="M10910 16573 c-19 -37 -72 -135 -117 -218 -46 -82 -82 -157 -81 -165
2 -8 18 -17 37 -21 30 -6 35 -4 50 23 34 62 32 61 86 40 51 -21 56 -29 40 -78
-5 -17 0 -22 35 -33 33 -10 45 -10 56 0 12 10 20 7 43 -15 23 -22 42 -29 88
-33 71 -7 111 10 142 60 33 54 28 106 -19 191 -22 40 -40 84 -40 98 0 24 40
78 58 78 22 0 44 -40 39 -69 -5 -24 -2 -30 16 -35 61 -16 86 15 67 84 -13 49
-57 82 -119 87 -62 6 -95 -8 -126 -56 -45 -67 -44 -108 4 -195 45 -82 51 -122
23 -156 -15 -18 -25 -22 -46 -16 -26 6 -28 10 -24 54 l3 47 -45 5 c-38 4 -45
8 -43 25 6 56 35 274 40 302 5 29 2 34 -23 43 -15 6 -46 13 -68 16 l-41 6 -35
-69z"/>
<path d="M9078 16608 c-16 -5 -28 -13 -28 -18 0 -4 20 -57 45 -116 67 -160 55
-166 -49 -25 -58 79 -96 121 -108 121 -32 0 -88 -28 -88 -44 0 -8 7 -30 15
-48 8 -18 30 -76 50 -128 60 -157 108 -270 117 -276 14 -9 68 7 68 19 0 12
-66 179 -101 255 -21 45 -22 67 -4 54 6 -4 33 -36 60 -72 27 -36 55 -71 62
-78 7 -7 31 -39 54 -72 23 -33 47 -60 52 -60 6 0 26 5 44 12 23 8 33 17 29 28
-8 26 -103 280 -138 369 -18 47 -38 86 -43 87 -6 1 -22 -2 -37 -8z"/>
<path d="M8550 16437 c-129 -57 -124 -52 -97 -90 13 -18 41 -61 62 -97 21 -36
53 -87 71 -115 17 -27 48 -80 68 -117 21 -39 44 -68 52 -68 9 0 46 13 82 29
37 16 80 33 95 37 16 3 31 12 34 20 7 19 -15 54 -36 54 -20 0 -75 -23 -102
-42 -26 -18 -46 -3 -78 60 l-30 59 50 23 c51 24 60 42 35 75 -13 18 -15 18
-66 -4 -28 -12 -58 -20 -65 -18 -15 6 -65 93 -65 113 0 8 24 21 61 31 34 9 63
22 65 28 7 18 -14 65 -28 64 -7 0 -56 -19 -108 -42z"/>
<path d="M11604 16398 c-9 -18 -70 -117 -136 -221 -65 -104 -117 -192 -114
-194 10 -11 282 -123 296 -123 14 0 56 49 165 197 26 35 51 65 56 68 20 13 13
-5 -84 -231 -19 -45 -32 -85 -29 -91 4 -5 23 -19 43 -31 l36 -21 49 67 c61 83
207 267 245 307 16 17 29 35 29 39 0 13 -43 45 -61 46 -9 0 -48 -46 -90 -105
-70 -100 -99 -129 -99 -102 0 7 25 66 55 131 30 66 54 120 52 121 -1 1 -26 15
-56 31 l-54 29 -16 -25 c-9 -13 -67 -89 -129 -169 -63 -80 -120 -154 -127
-164 -13 -19 -16 -19 -80 14 -37 19 -69 39 -72 46 -4 11 64 123 76 123 4 0 15
-6 26 -14 11 -7 37 -18 58 -24 35 -10 39 -9 49 13 16 35 6 49 -46 63 -29 7
-46 18 -46 27 0 22 63 115 77 115 7 0 37 -12 68 -26 60 -29 81 -27 94 8 12 31
2 40 -97 78 -45 18 -85 37 -88 41 -11 19 -34 8 -50 -23z"/>
<path d="M8343 16347 c-32 -14 -29 -38 15 -97 20 -28 74 -102 120 -163 45 -62
82 -120 82 -129 0 -20 -39 -33 -73 -24 -12 3 -35 22 -50 43 -99 134 -197 275
-197 283 0 17 -26 17 -63 -2 l-38 -19 56 -72 c30 -40 59 -76 63 -82 4 -5 43
-57 87 -115 43 -58 84 -108 89 -112 24 -17 99 -8 146 18 41 22 49 31 54 64 8
48 3 61 -53 137 -25 34 -79 109 -120 167 -40 58 -78 107 -85 109 -6 2 -21 0
-33 -6z"/>
<path d="M8002 16153 c-44 -22 -82 -69 -82 -102 0 -39 39 -93 158 -220 114
-122 147 -142 212 -122 20 6 54 23 75 37 23 16 46 23 59 20 24 -6 46 10 46 35
0 12 -9 19 -27 21 -18 2 -35 15 -51 38 -13 19 -50 65 -83 101 -32 37 -78 89
-101 118 -71 87 -134 110 -206 74z m197 -189 c67 -69 121 -134 121 -143 0 -18
-38 -41 -66 -41 -18 0 -39 21 -165 167 -49 56 -89 107 -89 112 0 14 31 30 56
31 15 0 61 -40 143 -126z"/>
<path d="M12133 15902 c-107 -104 -174 -177 -178 -194 -8 -33 15 -71 69 -109
45 -34 98 -38 136 -12 73 50 350 305 350 322 0 4 -14 17 -31 30 l-30 22 -150
-145 c-82 -80 -164 -153 -181 -162 -29 -15 -32 -15 -55 8 l-24 25 168 162 168
162 -32 29 c-18 17 -33 30 -35 30 -2 0 -80 -76 -175 -168z"/>
<path d="M7644 15881 c-43 -31 -74 -71 -74 -97 0 -22 111 -135 220 -224 l89
-74 -37 -42 c-20 -23 -42 -44 -49 -47 -12 -6 -59 24 -258 164 -66 47 -126 89
-133 93 -13 8 -62 -28 -62 -45 0 -7 367 -273 427 -310 21 -13 27 -10 93 56 48
47 70 76 68 90 -3 17 2 19 26 17 37 -4 98 36 132 87 24 37 25 41 11 68 -18 33
-71 84 -188 181 -151 124 -192 137 -265 83z m126 -78 c34 -23 228 -191 236
-204 7 -13 -23 -59 -39 -59 -20 0 -189 134 -274 217 -23 22 -29 44 -16 56 12
13 69 7 93 -10z"/>
<path d="M12488 15817 c-111 -92 -252 -203 -300 -236 -27 -17 -48 -38 -48 -45
0 -12 40 -46 54 -46 7 0 212 165 251 202 29 27 45 35 45 22 0 -6 -13 -23 -153
-207 -37 -48 -67 -92 -67 -96 0 -5 14 -21 31 -36 27 -22 34 -24 49 -13 9 7 71
56 136 108 66 53 156 124 202 158 45 35 82 65 82 67 0 6 -54 55 -61 55 -3 0
-35 -26 -71 -57 -72 -64 -158 -128 -158 -118 0 11 57 90 110 151 27 33 50 66
50 73 0 21 -50 71 -71 71 -10 0 -46 -24 -81 -53z"/>
<path d="M12802 15515 c-92 -43 -291 -167 -327 -204 -42 -42 -44 -65 -10 -112
55 -74 94 -84 189 -49 68 26 80 39 66 74 -12 32 -37 34 -82 6 -42 -25 -84 -26
-97 -1 -13 24 -6 30 129 114 137 85 205 114 225 97 8 -7 15 -20 15 -30 0 -21
-31 -50 -53 -50 -27 0 -28 -17 -2 -48 31 -37 50 -34 110 22 30 28 45 51 45 67
0 43 -50 101 -107 125 -41 18 -39 18 -101 -11z"/>
<path d="M7192 15420 c-38 -24 -72 -75 -72 -111 0 -15 12 -36 29 -53 45 -43
371 -216 407 -216 36 0 105 55 123 98 29 69 -23 114 -287 249 -113 58 -149 64
-200 33z m212 -129 c219 -115 215 -111 177 -160 l-18 -23 -64 32 c-74 38 -210
114 -256 144 -20 13 -33 29 -33 42 0 53 41 46 194 -35z"/>
<path d="M12821 15197 c-134 -68 -243 -127 -243 -132 1 -15 146 -233 158 -239
6 -2 84 27 172 65 89 38 205 84 257 101 l96 33 -6 30 c-11 57 -25 60 -101 27
-221 -96 -386 -162 -395 -157 -5 4 -9 11 -9 17 0 5 -13 27 -30 48 -16 21 -30
41 -30 44 0 6 97 54 338 167 50 23 92 49 92 55 0 26 -24 64 -39 64 -9 -1 -126
-56 -260 -123z"/>
<path d="M7042 15190 c-35 -8 -43 -17 -105 -112 l-38 -58 23 -9 c96 -37 149
-59 258 -108 69 -30 153 -68 187 -83 57 -26 63 -27 76 -12 23 26 77 139 77
160 0 24 -40 65 -83 85 -155 73 -299 133 -337 140 -14 2 -40 1 -58 -3z m100
-94 c164 -62 288 -121 288 -136 0 -5 -5 -21 -12 -35 -10 -22 -16 -25 -42 -19
-17 3 -44 13 -60 21 -16 8 -61 28 -100 45 -39 16 -98 41 -131 55 -33 14 -62
26 -63 28 -5 5 41 65 49 65 5 0 36 -11 71 -24z"/>
<path d="M13040 14921 c-180 -59 -222 -81 -251 -127 l-23 -37 25 -45 c16 -30
37 -52 62 -65 35 -18 42 -18 115 -5 l77 13 -3 35 c-5 44 -15 50 -61 38 -93
-25 -110 -21 -111 23 0 19 32 33 215 95 140 48 166 52 185 29 21 -25 7 -49
-38 -65 -41 -14 -43 -17 -38 -44 4 -16 8 -32 11 -34 10 -10 75 10 118 38 42
26 47 34 47 65 0 42 -12 69 -48 108 -40 42 -104 37 -282 -22z"/>
<path d="M6863 14913 c-27 -29 -53 -82 -53 -108 0 -8 16 -32 35 -54 32 -35 51
-44 180 -85 211 -69 242 -75 283 -64 46 13 79 48 88 93 16 87 -11 106 -255
189 -192 65 -239 70 -278 29z m272 -109 c93 -31 174 -60 179 -64 5 -5 6 -20 2
-34 -10 -39 -47 -34 -236 29 -200 67 -197 66 -182 99 17 37 42 34 237 -30z"/>
<path d="M13355 14719 c-33 -11 -91 -26 -130 -34 -162 -34 -326 -84 -363 -110
-1 -1 3 -16 9 -34 8 -24 16 -31 28 -26 76 30 209 46 196 25 -7 -12 -114 -84
-156 -105 -26 -14 -27 -17 -17 -46 6 -17 16 -33 23 -35 7 -3 72 34 144 81
l132 87 62 -7 c34 -4 100 -13 146 -21 46 -8 86 -13 88 -11 7 8 -30 76 -44 82
-8 3 -66 8 -129 12 -63 3 -114 10 -114 14 0 9 32 19 145 45 39 10 72 18 73 20
6 4 -18 73 -26 78 -4 2 -34 -5 -67 -15z"/>
<path d="M6766 14722 c-3 -5 -14 -35 -26 -68 -12 -32 -31 -80 -42 -107 -24
-53 -20 -61 30 -71 31 -5 34 -3 48 29 16 40 18 40 93 20 92 -24 390 -95 400
-95 11 0 36 58 28 66 -3 3 -74 23 -159 45 -84 21 -190 49 -236 61 l-83 23 6
36 c5 31 3 39 -17 53 -25 18 -35 20 -42 8z"/>
<path d="M10678 15566 c-48 -55 -89 -76 -176 -91 -102 -19 -232 -18 -509 1
-316 22 -636 16 -748 -15 -160 -45 -245 -106 -299 -217 -40 -80 -45 -155 -14
-214 30 -58 98 -110 143 -110 19 0 37 5 41 11 3 6 1 44 -6 85 -11 65 -11 79 4
117 23 62 79 111 156 138 55 20 90 24 233 27 92 2 167 1 167 -3 0 -3 -10 -25
-22 -48 -11 -23 -49 -123 -84 -222 -34 -99 -78 -225 -98 -280 -36 -101 -109
-353 -166 -570 -61 -232 -76 -375 -45 -434 35 -69 153 -121 226 -100 62 18 64
22 65 159 1 93 9 158 28 255 29 137 121 504 161 640 13 44 35 118 48 165 14
47 37 123 52 170 15 47 33 106 40 132 7 26 23 64 36 84 l22 36 61 -6 c34 -4
108 -14 166 -23 297 -44 523 9 576 135 21 50 16 175 -8 198 -16 16 -19 15 -50
-20z"/>
<path d="M10120 14881 c-52 -20 -100 -50 -100 -62 0 -4 11 -19 25 -33 42 -42
35 -121 -34 -397 -72 -283 -82 -371 -52 -448 27 -72 66 -127 102 -141 16 -7
61 -12 100 -12 140 2 264 87 330 228 l32 69 11 -75 c14 -87 35 -136 77 -176
26 -25 39 -29 104 -32 93 -5 138 16 225 102 74 73 170 244 170 303 0 28 -3 34
-16 29 -9 -3 -20 -6 -25 -6 -5 0 -27 -36 -49 -80 -70 -139 -161 -212 -201
-164 -22 27 -18 149 8 219 12 33 31 96 42 140 74 295 91 372 91 416 0 48 -21
106 -43 121 -22 14 -94 18 -152 8 -75 -12 -95 -33 -95 -100 0 -85 -30 -222
-81 -375 -87 -257 -132 -335 -228 -397 -78 -49 -124 -31 -138 55 -5 35 17 156
39 207 16 37 56 190 83 315 27 126 22 183 -20 247 -38 58 -117 73 -205 39z"/>
<path d="M8556 14739 c-3 -34 -6 -79 -6 -100 0 -43 -14 -56 -117 -108 -35 -17
-63 -35 -63 -39 1 -4 41 -27 90 -52 l89 -44 15 -86 c9 -47 16 -93 16 -102 0
-31 17 -20 82 53 l63 71 52 -6 c29 -3 78 -9 108 -12 l55 -7 -45 79 c-25 44
-48 88 -51 99 -4 17 35 121 67 178 6 11 9 20 7 22 -2 2 -47 -4 -101 -12 l-98
-16 -72 71 c-40 40 -75 72 -78 72 -4 0 -9 -28 -13 -61z"/>
<path d="M11553 14728 c3 -13 9 -57 12 -99 l7 -76 -76 -61 c-42 -33 -73 -63
-68 -65 4 -3 45 -15 92 -27 47 -12 90 -28 97 -34 6 -6 26 -48 43 -94 17 -45
35 -80 40 -77 5 3 23 31 41 63 56 100 59 102 166 102 51 0 93 3 93 6 0 4 -29
40 -65 81 -36 41 -65 77 -65 81 0 4 11 49 24 100 21 81 22 92 7 87 -9 -4 -41
-16 -71 -27 -30 -11 -59 -24 -64 -29 -19 -18 -49 -8 -125 41 -43 28 -81 50
-86 50 -4 0 -5 -10 -2 -22z"/>
<path d="M6225 13849 c-259 -26 -557 -157 -722 -316 -112 -109 -180 -290 -153
-404 9 -38 24 -59 70 -103 64 -61 93 -76 147 -76 34 0 153 55 153 70 0 4 -15
39 -32 76 -62 131 -49 256 37 373 58 78 95 105 221 157 150 62 242 77 439 72
143 -4 168 -8 235 -33 187 -68 298 -158 371 -300 67 -128 73 -161 73 -350 0
-156 -2 -177 -27 -257 -40 -130 -131 -314 -177 -358 -3 -3 -21 -25 -39 -50
-46 -61 -150 -161 -207 -200 -122 -82 -248 -129 -428 -160 -149 -25 -227 -25
-347 0 -176 37 -288 115 -303 212 -6 38 -45 78 -76 78 -29 0 -99 -58 -114 -95
-46 -109 -24 -183 77 -263 87 -69 159 -91 337 -104 108 -8 194 -8 336 1 260
17 300 28 586 164 339 162 553 405 674 763 13 40 24 82 24 93 0 11 7 46 15 78
9 33 15 101 15 161 0 336 -186 603 -495 710 -33 11 -76 27 -95 36 -68 28 -418
43 -595 25z"/>
<path d="M14160 13597 c-19 -8 -46 -19 -60 -24 -44 -18 -128 -102 -179 -178
-61 -92 -160 -293 -196 -400 -26 -76 -27 -87 -22 -210 9 -205 40 -290 127
-350 39 -27 51 -30 119 -30 83 1 96 6 218 84 46 30 77 57 87 79 9 17 20 32 25
32 5 0 19 -16 31 -35 31 -50 94 -101 143 -114 63 -18 165 0 220 37 66 46 159
178 207 294 19 48 22 62 12 83 -6 14 -16 25 -21 25 -14 0 -56 -46 -96 -105
-43 -65 -69 -91 -107 -111 -43 -22 -57 -5 -68 82 -8 63 -6 83 29 219 21 83 54
206 74 275 63 220 87 311 87 324 0 15 -65 19 -430 31 -127 4 -173 2 -200 -8z
m253 -148 c47 -25 48 -58 8 -168 -16 -44 -39 -120 -51 -168 -36 -150 -55 -192
-143 -318 -74 -105 -95 -125 -135 -125 -24 0 -42 9 -64 31 l-31 30 6 93 c8
116 67 361 107 441 39 79 104 153 154 176 47 21 117 25 149 8z"/>
<path d="M13225 13590 c-108 -22 -253 -111 -306 -189 -22 -31 -24 -45 -24
-150 0 -64 3 -128 8 -144 9 -34 120 -152 211 -225 90 -72 121 -105 146 -156
33 -69 27 -109 -23 -163 -36 -37 -50 -46 -88 -50 -58 -7 -99 14 -139 69 -30
41 -39 91 -20 103 31 19 -15 134 -48 119 -9 -4 -35 -9 -56 -12 -34 -4 -53 -19
-158 -125 -112 -113 -120 -119 -144 -109 -13 7 -28 22 -33 36 -13 32 3 145 33
236 82 252 99 336 94 468 -6 164 -53 221 -192 230 -103 6 -129 0 -231 -61 -90
-53 -90 -53 -134 -140 -24 -48 -48 -87 -54 -87 -6 0 -7 30 -3 81 l7 80 -35 34
c-31 29 -46 34 -120 45 -96 13 -129 4 -181 -50 l-28 -29 32 -36 c28 -32 31
-42 31 -102 0 -121 -35 -298 -125 -628 -9 -33 -22 -98 -30 -145 -13 -84 -13
-85 10 -109 48 -50 214 -33 252 25 19 29 52 152 83 309 26 131 91 332 127 395
42 71 101 148 129 166 34 23 129 13 158 -16 l21 -20 -23 -123 c-12 -67 -40
-198 -62 -292 -44 -189 -53 -321 -26 -374 37 -70 117 -111 188 -96 49 11 181
80 223 116 26 23 39 29 48 21 7 -6 67 -33 132 -59 l120 -48 125 0 c115 0 131
3 192 29 83 35 145 88 183 157 25 46 29 66 33 154 6 147 -2 169 -106 271 -48
47 -109 105 -136 127 -71 60 -93 84 -121 135 -34 61 -32 84 13 132 37 38 41
40 101 40 52 0 66 -4 86 -25 23 -22 25 -32 25 -115 l0 -90 37 0 c141 0 212
119 147 248 -61 122 -189 174 -349 142z"/>
<path d="M6100 13552 c-31 -15 -35 -22 -37 -62 -6 -114 -39 -333 -73 -479 -11
-47 -36 -160 -55 -251 -47 -218 -100 -432 -136 -555 -16 -55 -28 -109 -25
-121 9 -33 50 -50 90 -36 18 7 40 12 49 12 63 0 152 96 187 203 23 70 86 322
125 502 14 66 39 176 55 245 70 297 91 456 68 500 -20 38 -73 60 -148 60 -42
0 -77 -6 -100 -18z"/>
<path d="M11235 13502 c-5 -5 -47 -24 -92 -42 -147 -58 -243 -134 -342 -270
-84 -117 -118 -198 -137 -325 -14 -92 -15 -126 -5 -210 18 -162 62 -229 194
-297 54 -28 75 -32 158 -36 112 -5 219 19 306 69 72 41 182 152 217 218 28 52
28 54 12 87 -8 19 -23 34 -32 34 -9 0 -48 -34 -86 -75 -70 -75 -165 -141 -219
-152 -16 -3 -58 4 -98 16 -56 17 -76 29 -104 61 -50 59 -74 154 -44 178 7 6
33 16 57 21 196 44 352 115 433 196 89 89 147 223 132 304 -16 82 -79 162
-162 202 -51 24 -170 38 -188 21z m18 -163 c46 -25 58 -50 53 -113 -8 -109
-82 -219 -181 -269 -46 -23 -164 -56 -170 -47 -6 10 50 180 79 238 49 97 144
202 184 202 7 0 23 -5 35 -11z"/>
<path d="M10162 13420 c-97 -21 -160 -72 -244 -201 -52 -81 -58 -82 -58 -2 0
50 -5 77 -20 101 -25 40 -75 72 -116 72 -82 0 -194 -59 -194 -102 0 -11 11
-33 24 -49 48 -57 31 -233 -73 -734 -65 -312 -105 -489 -136 -598 -50 -172
-44 -227 24 -227 73 0 190 83 228 162 21 45 74 250 98 378 7 41 19 103 25 138
l12 63 32 -50 c54 -86 74 -96 196 -96 101 0 108 1 181 37 229 112 389 407 389
717 0 180 -68 320 -184 375 -42 20 -129 27 -184 16z m19 -252 c37 -42 49 -84
49 -180 0 -131 -41 -290 -110 -428 -43 -86 -144 -170 -204 -170 -52 0 -146
114 -146 176 0 94 82 382 138 484 35 64 84 127 107 139 11 5 46 10 78 10 53 1
61 -2 88 -31z"/>
<path d="M8924 13360 c-54 -11 -134 -52 -177 -90 -19 -17 -54 -60 -78 -96 -39
-60 -43 -72 -47 -143 -4 -68 -1 -83 21 -127 38 -72 109 -158 164 -195 153
-105 233 -190 233 -250 0 -34 -42 -93 -85 -119 -52 -32 -131 -25 -183 17 l-37
31 3 83 c3 97 -7 124 -53 139 -38 13 -108 -8 -136 -41 -23 -27 -59 -121 -59
-155 0 -28 43 -95 87 -135 112 -102 305 -125 459 -55 31 14 63 26 71 26 7 0
36 21 63 46 107 100 162 224 140 313 -15 59 -73 171 -101 197 -13 11 -73 56
-133 100 -60 43 -126 97 -148 118 -58 60 -76 148 -37 185 28 26 126 43 173 30
48 -13 60 -39 53 -113 -12 -133 59 -177 160 -100 88 67 96 200 15 271 -59 52
-98 65 -216 68 -61 3 -130 0 -152 -5z"/>
<path d="M8070 13317 c-186 -44 -384 -235 -474 -461 -55 -136 -71 -303 -42
-414 19 -69 70 -153 122 -202 77 -71 234 -106 359 -80 216 45 423 230 413 371
-4 60 -33 65 -68 12 -97 -144 -261 -220 -385 -178 -95 33 -145 91 -145 171 0
29 5 56 13 61 15 13 58 23 117 29 25 3 54 9 65 14 11 5 59 27 108 49 48 22
109 57 136 78 46 36 125 131 151 182 20 39 25 180 7 222 -21 52 -71 105 -123
129 -55 27 -175 35 -254 17z m117 -154 c30 -74 -3 -198 -81 -298 -39 -51 -50
-59 -116 -86 -30 -12 -75 -31 -98 -41 -24 -11 -47 -17 -50 -14 -18 19 126 364
169 402 48 43 102 74 131 74 24 0 32 -6 45 -37z"/>
<path d="M14831 12108 c-30 -95 -75 -139 -197 -193 l-89 -40 -309 3 -309 3
-16 -23 c-9 -13 -25 -50 -37 -83 -53 -151 -88 -244 -106 -285 -85 -189 -135
-295 -178 -372 -28 -50 -50 -93 -50 -95 0 -10 -197 -301 -271 -401 -242 -326
-642 -695 -1029 -948 -208 -137 -528 -293 -795 -388 -178 -64 -427 -132 -565
-155 -36 -6 -119 -19 -185 -30 -234 -39 -639 -52 -916 -30 -120 9 -193 19
-379 49 -207 33 -452 101 -690 189 -226 85 -544 248 -750 386 -286 191 -398
283 -646 530 -353 353 -541 621 -794 1134 l-95 192 -95 -6 c-52 -3 -165 -13
-250 -23 -85 -9 -204 -17 -265 -17 -120 0 -148 9 -260 80 -62 40 -85 69 -85
105 0 34 -26 70 -52 70 -18 0 -20 -5 -16 -38 17 -122 103 -203 277 -263 67
-23 174 -24 426 -4 267 22 249 24 270 -32 33 -88 209 -435 240 -473 7 -8 33
-49 58 -91 69 -115 246 -362 322 -449 217 -247 436 -454 674 -634 116 -88 386
-266 481 -318 151 -82 320 -163 445 -213 39 -15 84 -33 100 -40 99 -42 397
-126 575 -164 571 -120 1162 -118 1720 6 185 41 433 112 554 159 96 38 354
152 371 164 6 4 67 37 137 73 70 37 167 93 215 124 95 62 285 193 293 203 3 3
21 17 40 30 19 13 53 40 76 59 22 20 72 63 110 96 129 111 401 389 476 485
247 318 339 461 486 755 91 181 192 418 222 522 13 41 14 42 69 50 31 4 117 6
191 3 297 -10 341 -7 406 26 68 34 143 105 197 186 34 52 37 62 37 127 0 39
-4 71 -8 71 -4 0 -18 -33 -31 -72z"/>
<path d="M7205 11999 c-49 -4 -138 -7 -197 -8 l-108 -1 0 -30 0 -30 189 0 190
0 20 -26 c11 -14 43 -85 70 -157 66 -172 129 -295 220 -431 154 -230 270 -369
476 -566 140 -134 414 -338 580 -430 33 -18 76 -42 95 -53 19 -11 87 -42 150
-70 63 -27 142 -62 175 -77 115 -52 343 -110 620 -156 186 -31 545 -44 702
-24 227 28 656 124 806 180 187 70 534 273 752 440 394 301 657 635 924 1168
53 104 100 186 111 192 12 6 112 14 225 17 l205 6 0 34 0 33 -264 0 c-205 0
-266 -3 -274 -13 -6 -7 -36 -71 -67 -142 -266 -618 -699 -1115 -1245 -1428
-479 -274 -1059 -412 -1593 -378 -224 15 -395 40 -569 86 -494 128 -900 353
-1277 709 -221 208 -376 410 -555 723 -76 133 -108 197 -184 377 -21 50 -38
66 -65 64 -12 0 -62 -4 -112 -9z"/>
<path d="M8202 11823 c-2 -53 -6 -101 -8 -105 -3 -5 -41 -29 -85 -55 -44 -25
-76 -50 -72 -54 4 -4 38 -20 74 -36 102 -44 107 -49 125 -133 8 -41 17 -82 18
-89 6 -31 23 -19 80 54 l59 75 56 -6 c31 -4 75 -10 99 -14 23 -4 42 -4 42 1 0
5 -23 47 -51 93 l-50 84 36 93 c19 50 34 94 31 96 -2 2 -42 -5 -89 -16 -104
-26 -97 -26 -127 2 -67 60 -123 107 -129 107 -4 0 -8 -44 -9 -97z"/>
<path d="M10606 11840 c-22 -11 -47 -27 -57 -36 -17 -15 -21 -14 -58 15 -40
32 -40 32 -103 21 -128 -22 -263 -79 -426 -177 -10 -6 -14 -46 -15 -156 -1
-81 1 -147 4 -147 9 0 19 27 19 51 0 11 9 21 24 25 19 4 39 -5 86 -38 53 -37
59 -43 38 -46 -12 -1 -67 -10 -121 -18 -92 -15 -99 -15 -118 2 -16 14 -19 31
-19 98 0 95 14 152 43 185 l22 23 -39 -16 c-62 -26 -133 -72 -231 -151 -126
-101 -162 -143 -170 -199 -7 -43 -1 -120 12 -152 3 -8 0 -14 -6 -14 -51 0
-373 345 -434 466 -35 70 -49 80 -81 59 -34 -22 -93 -106 -122 -172 -20 -44
-22 -57 -12 -73 8 -13 20 -17 37 -14 19 4 35 -3 56 -22 62 -55 106 -78 124
-67 22 14 105 1 128 -19 10 -9 34 -21 54 -27 20 -6 47 -23 59 -36 l23 -25 -79
0 c-102 0 -207 16 -247 36 -51 27 -127 94 -133 119 -5 22 -40 41 -48 27 -10
-19 -16 -82 -7 -82 7 0 8 -35 4 -97 -5 -95 -4 -101 32 -198 50 -134 115 -215
260 -326 104 -80 137 -92 227 -86 51 3 78 2 78 -5 0 -21 74 -101 118 -129 72
-45 132 -53 227 -29 51 13 88 29 105 45 23 22 32 24 76 19 27 -3 75 -15 106
-26 82 -29 243 -22 347 15 l74 26 37 -30 c40 -32 48 -33 172 -25 51 4 68 1 72
-9 5 -15 84 -75 98 -75 11 0 10 47 -2 55 -16 10 -32 45 -21 45 6 0 17 -12 24
-26 l14 -26 22 28 c14 18 21 38 19 57 -3 27 1 31 42 45 71 24 80 56 21 76 -19
6 -36 16 -38 22 -2 6 38 30 89 54 51 23 106 52 121 63 33 23 54 17 118 -34 20
-16 40 -29 44 -29 4 0 31 20 59 44 28 24 70 53 94 65 24 12 46 29 49 38 6 16
2 20 -76 63 -35 19 -46 31 -46 50 0 18 7 26 33 32 27 7 32 13 32 37 0 26 -4
29 -37 33 -62 7 -134 -9 -163 -37 -14 -14 -29 -25 -33 -25 -12 0 -7 28 6 33 8
3 2 25 -23 78 -39 82 -124 174 -187 204 -21 10 -56 26 -78 37 -22 10 -56 23
-75 28 -19 5 -54 14 -78 21 -39 11 -64 7 -50 -7 3 -3 58 -25 121 -49 63 -24
133 -55 154 -68 93 -59 177 -193 177 -283 1 -130 -138 -278 -299 -318 -49 -12
-147 -23 -256 -28 -60 -4 -78 17 -59 68 l10 29 -20 -25 c-30 -38 -34 -60 -14
-74 26 -20 10 -34 -67 -57 -66 -20 -69 -22 -54 -39 15 -17 9 -18 -139 -25
-152 -7 -263 2 -308 26 -15 8 -16 13 -6 29 7 11 15 15 19 9 8 -14 39 98 39
144 0 20 -10 55 -21 77 -21 39 -139 170 -154 170 -4 0 -30 16 -58 36 -46 34
-55 36 -123 36 -96 -1 -109 13 -58 62 78 75 232 134 400 152 68 7 143 -12 188
-47 15 -12 27 -15 31 -9 8 13 62 13 70 0 3 -6 16 -8 29 -4 30 7 140 -48 210
-107 31 -25 70 -71 91 -107 34 -58 37 -68 31 -116 -3 -28 -14 -78 -25 -109
-12 -37 -14 -57 -7 -57 19 1 46 26 46 44 0 21 17 21 24 -1 6 -20 1 24 -9 72
-4 24 -3 26 4 10 15 -31 11 39 -5 98 -9 32 -10 45 -2 41 7 -5 8 -2 2 7 -13 22
-20 30 -68 84 -25 28 -46 55 -46 61 0 7 -21 23 -47 37 -27 14 -47 30 -46 35 1
6 -7 7 -19 4 -15 -4 -19 -2 -14 7 5 8 2 11 -9 9 -10 -2 -20 3 -23 11 -3 10 1
12 16 9 13 -4 20 -1 19 5 -1 6 16 19 38 30 22 11 46 28 53 38 18 25 85 59 117
59 34 0 31 16 -7 36 -30 16 -33 15 -47 -3 -26 -31 -129 -112 -171 -133 -42
-21 -105 -27 -115 -10 -3 5 2 23 12 40 12 21 28 32 53 36 80 15 191 92 241
167 4 6 23 6 50 0 62 -13 121 0 215 47 44 22 90 40 101 40 36 0 53 11 53 36 0
19 -8 25 -40 34 -22 6 -40 15 -40 20 0 5 13 19 30 31 31 24 85 97 76 106 -7 7
-78 -18 -98 -35 -13 -11 -15 -19 -8 -33 14 -25 -15 -55 -37 -38 -11 10 -19 7
-40 -15 -29 -32 -26 -37 30 -51 23 -6 43 -18 45 -26 2 -13 -14 -15 -97 -15
-89 0 -115 4 -78 13 73 16 81 19 69 27 -7 4 -25 5 -40 2 -36 -8 -74 13 -82 44
-7 24 -5 25 44 25 28 0 56 -3 62 -7 7 -5 27 6 48 26 30 27 34 35 23 44 -8 7
-16 9 -19 6 -3 -2 -8 2 -11 11 -8 19 3 19 29 1 17 -13 21 -12 37 1 9 9 17 20
17 25 0 5 -8 8 -17 7 -10 -1 -27 -1 -38 0 -16 1 -17 3 -5 11 27 17 2 22 -29 6
-37 -20 -42 -20 -35 -1 7 17 -12 22 -116 29 -62 5 -82 3 -114 -14z m69 -60
c-44 -45 -54 -50 -92 -50 -24 0 -43 -3 -43 -7 0 -17 46 -53 67 -53 53 0 88
-45 41 -52 -30 -4 -28 -19 5 -38 22 -12 30 -13 47 -2 17 10 23 9 40 -8 15 -15
34 -20 78 -20 84 -1 44 -16 -61 -23 -48 -3 -99 -2 -113 3 -44 17 -123 100
-136 143 -10 34 -10 41 5 52 9 7 17 18 17 25 0 7 7 10 16 6 19 -7 70 15 109
48 17 14 39 25 50 26 15 0 9 -11 -30 -50z m-365 4 c0 -8 -7 -14 -15 -14 -22 0
-38 -39 -37 -90 l0 -45 -19 24 c-29 36 -32 21 -8 -45 30 -80 59 -116 130 -164
33 -23 57 -45 55 -49 -9 -13 -105 -21 -132 -10 -42 15 -172 158 -188 206 -13
37 -13 43 0 43 10 0 14 12 14 39 0 41 1 42 88 70 19 6 47 22 64 36 30 26 48
25 48 -1z m160 16 c0 -9 -31 -48 -72 -92 -21 -22 -24 -35 -4 -19 8 7 27 10 42
8 22 -3 28 -10 31 -33 7 -51 37 -86 127 -146 8 -6 6 -11 -4 -18 -21 -14 -60
-12 -90 3 -57 30 -62 26 -17 -14 26 -23 47 -45 47 -48 0 -4 -16 -7 -36 -8 -31
-1 -49 9 -111 60 -41 34 -81 74 -89 89 -17 33 -17 33 29 13 49 -20 51 -19 28
14 -16 23 -20 41 -17 76 4 53 7 57 73 96 53 31 63 34 63 19z m-407 -180 c9
-82 33 -125 112 -198 l67 -62 -34 0 c-23 0 -50 11 -79 32 -54 39 -57 42 -93
98 -29 44 -35 79 -24 140 13 73 43 67 51 -10z m-1018 -112 c15 -22 63 -80 107
-129 44 -50 77 -93 74 -96 -12 -13 -76 27 -143 89 -37 35 -85 78 -105 95 l-37
32 26 30 c31 35 43 32 78 -21z m776 -58 c4 -41 14 -97 23 -124 20 -62 20 -69
-2 -57 -10 5 -25 9 -33 8 -15 -2 -109 96 -109 113 0 6 11 10 25 10 24 0 25 3
25 55 0 41 4 57 18 64 37 22 47 9 53 -69z m-227 -114 c4 -19 20 -51 36 -71 17
-21 30 -41 30 -45 0 -4 -17 -25 -38 -46 -20 -22 -46 -61 -57 -87 l-19 -46 -68
-7 c-44 -4 -67 -11 -65 -18 2 -6 15 -12 30 -14 46 -6 53 -27 23 -70 l-26 -38
-167 -17 c-93 -10 -200 -17 -239 -17 -76 0 -82 4 -133 77 -27 40 -53 134 -40
148 6 5 9 3 9 -8 0 -17 107 -75 185 -102 62 -20 231 -14 305 12 38 13 -45 27
-173 29 l-138 1 -82 43 c-45 23 -92 52 -104 63 -26 23 -29 62 -10 114 l12 31
75 -49 c41 -28 89 -56 105 -63 35 -16 196 -36 288 -36 68 0 91 -13 85 -47 -2
-15 3 -18 32 -16 92 4 85 -6 86 123 0 89 4 124 18 153 23 46 32 47 40 3z m0
-345 c4 -5 23 -5 47 0 53 12 89 1 165 -52 119 -83 150 -140 138 -252 -9 -79
-30 -122 -89 -176 -61 -57 -117 -81 -186 -81 -49 0 -64 5 -115 39 -60 40 -88
70 -118 129 -20 38 -23 139 -7 200 11 38 67 120 104 151 10 7 17 22 17 32 0
20 34 27 44 10z m-198 -186 c-9 -21 -16 -50 -16 -65 0 -16 -7 -30 -16 -34 -9
-3 -63 -6 -120 -6 -84 0 -112 4 -143 20 -47 23 -98 65 -112 92 -10 18 -8 18
32 -3 46 -23 98 -21 123 4 19 19 257 51 264 35 2 -3 -4 -23 -12 -43z"/>
<path d="M9604 10791 c-70 -43 -94 -118 -51 -159 24 -22 47 -29 47 -14 0 5
-13 21 -30 35 -16 15 -30 30 -30 35 1 27 74 82 110 82 23 0 70 -35 70 -52 0
-4 -18 -9 -39 -13 -44 -7 -64 -24 -52 -44 7 -10 18 -8 55 13 37 21 51 24 67
16 28 -15 23 -46 -11 -72 -16 -12 -30 -25 -30 -30 0 -18 34 -6 61 23 24 26 27
34 18 56 -11 30 -124 143 -142 143 -7 0 -26 -9 -43 -19z"/>
<path d="M11846 11764 l-89 -55 -71 32 c-39 17 -75 36 -80 40 -6 5 -18 9 -28
9 -14 0 -17 -6 -14 -22 3 -13 8 -54 11 -92 4 -38 9 -75 12 -83 3 -7 -30 -49
-76 -96 -45 -46 -81 -86 -81 -89 0 -4 39 -9 88 -13 48 -3 96 -10 108 -14 13
-6 33 -40 58 -101 21 -50 42 -88 46 -83 4 4 29 50 55 101 28 56 56 97 69 103
11 5 59 18 105 29 46 10 86 22 89 25 4 3 -26 36 -66 73 -40 37 -72 72 -72 77
0 6 9 50 20 99 22 98 24 116 13 115 -5 0 -48 -25 -97 -55z"/>
<path d="M7130 11599 c-58 -39 -114 -79 -126 -90 -25 -23 -69 -24 -179 -4 -44
8 -95 14 -112 15 -31 0 -33 -2 -33 -35 0 -19 2 -35 5 -35 23 0 271 -33 275
-37 9 -8 -25 -22 -70 -29 -70 -9 -150 -36 -150 -50 0 -7 5 -25 10 -39 8 -20
15 -25 28 -20 9 4 98 29 197 55 359 94 345 90 345 121 0 15 -4 30 -10 34 -5 3
-47 -3 -93 -15 -141 -34 -177 -23 -91 28 112 66 124 78 124 127 0 25 -3 45 -7
45 -5 0 -55 -32 -113 -71z"/>
<path d="M12897 11536 c-9 -14 -17 -31 -17 -39 0 -9 68 -29 213 -64 116 -29
227 -55 245 -58 26 -5 32 -11 27 -23 -18 -44 -17 -55 6 -73 13 -10 29 -19 36
-19 11 0 32 48 74 173 20 59 20 62 2 74 -28 21 -56 11 -73 -25 -17 -40 -4 -41
-265 25 -240 61 -228 60 -248 29z"/>
<path d="M12870 11392 c-41 -13 -90 -81 -90 -126 0 -42 11 -56 60 -81 78 -39
370 -135 413 -135 50 0 100 47 117 109 21 79 -9 100 -235 174 -140 46 -238 67
-265 59z m145 -111 c100 -32 268 -92 274 -97 2 -2 -1 -15 -7 -29 -8 -17 -20
-25 -38 -25 -33 0 -361 108 -370 121 -3 6 -3 21 0 35 8 32 30 31 141 -5z"/>
<path d="M7195 11361 c-40 -14 -51 -22 -53 -42 -1 -13 2 -31 7 -39 9 -13 15
-13 43 -1 76 31 128 23 128 -20 0 -22 -17 -31 -185 -90 -83 -30 -137 -43 -175
-43 -52 -1 -55 0 -58 25 -2 19 3 28 23 37 14 7 35 12 46 12 25 0 34 22 19 49
-14 28 -58 27 -107 -1 -52 -29 -63 -45 -63 -92 0 -34 6 -46 45 -83 32 -30 54
-43 73 -43 32 0 114 24 154 46 14 8 35 14 46 14 11 0 33 6 49 14 15 8 55 24
88 37 92 34 125 62 125 107 0 49 -18 81 -59 109 -40 27 -78 28 -146 4z"/>
<path d="M12730 11168 c-11 -18 -32 -56 -47 -85 -27 -51 -27 -53 -10 -82 9
-16 17 -32 17 -35 0 -3 -22 -6 -49 -6 -46 0 -52 -3 -86 -42 -86 -102 -53 -144
228 -288 139 -71 182 -79 229 -45 32 24 78 92 78 116 0 23 -61 75 -149 129
-41 24 -69 46 -64 47 6 2 47 -14 93 -37 150 -72 189 -65 265 47 25 37 45 72
45 78 0 6 -23 19 -52 29 -28 10 -142 59 -252 108 -111 49 -206 92 -213 95 -7
3 -21 -10 -33 -29z m131 -102 c106 -48 229 -102 267 -116 37 -14 40 -28 11
-59 -24 -26 -21 -27 -189 40 -141 56 -190 82 -190 103 0 17 18 66 24 66 2 0
37 -15 77 -34z m-131 -215 c80 -39 258 -140 265 -151 3 -5 -5 -21 -18 -35
l-23 -27 -64 32 c-149 74 -280 153 -280 167 0 8 5 23 11 34 12 23 24 21 109
-20z"/>
<path d="M7416 11161 c-3 -5 -32 -19 -63 -31 -32 -13 -71 -29 -88 -36 -31 -14
-192 -80 -282 -116 -57 -22 -67 -44 -37 -83 13 -17 17 -18 37 -6 25 16 425
181 438 181 5 0 9 -6 9 -14 0 -8 16 -33 36 -57 l36 -43 -208 -103 c-202 -101
-234 -119 -234 -132 0 -3 9 -16 18 -29 l18 -24 150 72 c209 100 355 174 360
182 7 11 -157 248 -172 248 -7 0 -15 -4 -18 -9z"/>
<path d="M7569 10876 c-55 -19 -104 -50 -107 -67 -1 -8 4 -23 12 -34 14 -20
15 -20 72 9 59 30 76 29 98 -6 15 -24 -3 -40 -128 -116 -177 -107 -209 -118
-240 -83 -21 23 -14 38 20 51 13 5 30 21 36 36 11 23 10 28 -7 40 -24 18 -50
10 -102 -33 -47 -38 -54 -64 -28 -113 33 -63 108 -93 174 -70 20 7 105 53 189
103 211 126 228 158 134 250 -44 43 -75 51 -123 33z"/>
<path d="M12320 10645 c-58 -59 -72 -77 -62 -87 19 -19 14 -25 -25 -33 -45 -8
-98 -46 -123 -87 -33 -55 -5 -94 190 -257 100 -85 159 -116 198 -106 42 10
100 52 117 85 19 38 12 66 -28 110 -49 53 -202 186 -248 216 l-42 26 51 51 51
51 108 -74 c59 -41 148 -102 197 -137 l89 -64 23 22 c13 12 24 27 24 33 0 6
-72 63 -160 126 -89 63 -186 134 -218 157 -31 23 -59 43 -62 43 -3 0 -39 -34
-80 -75z m-67 -206 c37 -20 189 -145 242 -199 48 -49 49 -52 31 -66 -11 -8
-29 -14 -41 -14 -19 0 -134 88 -255 197 l-44 40 17 27 c20 30 21 30 50 15z"/>
<path d="M7790 10604 c-65 -52 -243 -191 -317 -247 -29 -22 -53 -43 -53 -48 0
-10 41 -39 55 -39 6 0 20 8 31 18 10 10 37 31 59 47 22 16 64 49 93 74 90 75
75 33 -33 -94 -47 -56 -85 -108 -85 -119 0 -2 18 -18 40 -36 l39 -31 62 48
c34 26 80 64 103 84 23 20 73 60 111 89 157 120 160 124 125 155 -18 17 -20
17 -49 -1 -16 -11 -82 -63 -146 -117 -64 -55 -119 -96 -122 -93 -5 5 69 112
157 225 28 35 50 68 50 73 0 11 -46 58 -57 58 -4 -1 -33 -21 -63 -46z"/>
<path d="M8005 10389 c-22 -16 -106 -91 -187 -167 l-148 -137 32 -27 31 -27
159 152 c88 84 166 156 174 160 16 9 74 -21 74 -38 0 -11 -214 -227 -290 -293
l-35 -30 24 -26 c14 -14 29 -26 34 -26 18 0 335 310 347 340 18 43 -2 86 -59
121 -59 38 -103 37 -156 -2z"/>
<path d="M11840 10275 c-37 -23 -67 -35 -92 -35 -20 0 -40 -5 -43 -11 -9 -14
30 -56 59 -63 12 -3 35 -25 52 -48 42 -59 221 -256 244 -268 10 -6 38 -10 62
-10 76 0 158 77 144 135 -8 33 -75 114 -191 232 -95 96 -104 103 -141 103 -27
0 -56 -11 -94 -35z m124 -76 c54 -47 206 -225 206 -241 0 -19 -20 -38 -42 -38
-24 0 -91 62 -176 164 -87 103 -87 103 -66 127 24 26 38 24 78 -12z"/>
<path d="M8304 10188 c-20 -29 -54 -73 -75 -98 -20 -25 -74 -89 -118 -142 -45
-53 -81 -102 -81 -107 0 -6 14 -18 31 -26 26 -14 32 -14 42 -2 7 8 45 57 86
111 65 85 91 111 91 89 0 -3 -23 -60 -51 -125 -28 -65 -49 -124 -46 -130 3 -7
21 -22 42 -32 27 -15 41 -17 53 -10 16 10 145 170 258 319 26 33 51 63 57 67
18 11 -4 28 -45 34 -34 6 -37 4 -84 -62 -27 -38 -57 -78 -67 -89 -9 -10 -32
-41 -50 -67 -30 -45 -47 -59 -47 -39 0 5 20 56 44 113 24 56 47 115 51 131 4
15 11 30 16 33 13 8 11 58 -3 72 -7 7 -24 12 -39 12 -21 0 -35 -11 -65 -52z"/>
<path d="M11625 10150 c-64 -34 -88 -66 -80 -109 6 -37 16 -53 157 -256 83
-119 84 -120 122 -119 61 2 64 16 14 81 -25 32 -84 112 -132 178 l-87 120 26
23 c14 12 30 22 35 22 16 0 67 -62 160 -192 134 -188 119 -173 163 -152 21 10
36 21 35 26 -7 19 -240 327 -271 356 -44 43 -89 50 -142 22z"/>
<path d="M8591 10070 c-10 -30 -10 -31 44 -55 29 -14 59 -25 64 -25 18 0 13
-20 -20 -76 -34 -60 -51 -66 -116 -39 -50 21 -60 19 -72 -15 -9 -29 -8 -32 17
-41 55 -20 82 -32 82 -36 0 -2 -16 -28 -35 -58 -39 -61 -49 -64 -114 -35 -24
11 -50 20 -58 20 -15 0 -42 -27 -43 -42 0 -7 58 -36 174 -89 39 -17 39 -17 59
7 22 28 221 345 243 387 15 28 12 47 -8 47 -5 0 -48 18 -95 40 -47 22 -91 40
-98 40 -7 0 -18 -14 -24 -30z"/>
<path d="M11358 10018 l-107 -41 14 -28 c8 -15 19 -30 24 -34 6 -3 37 6 70 20
33 14 66 25 73 25 12 0 94 -119 86 -124 -2 -2 -27 -11 -55 -21 -54 -19 -61
-31 -43 -66 13 -24 31 -24 80 1 22 11 43 20 49 20 11 0 71 -95 71 -113 0 -7
-29 -24 -65 -37 -36 -13 -65 -28 -65 -32 0 -19 25 -58 36 -58 13 0 215 78 223
85 1 2 -37 70 -87 152 -49 81 -107 181 -128 220 -23 42 -45 72 -54 72 -8 0
-63 -19 -122 -41z"/>
<path d="M11113 9934 c-18 -8 -33 -17 -33 -22 0 -7 54 -146 85 -217 24 -55 36
-97 26 -93 -5 2 -52 62 -105 133 -54 72 -104 135 -113 142 -16 12 -70 7 -87
-7 -4 -5 12 -61 37 -127 25 -65 65 -171 89 -235 45 -123 52 -131 102 -112 24
9 20 26 -29 150 -25 61 -45 115 -45 119 0 15 24 -13 101 -115 49 -67 88 -110
99 -110 20 0 81 20 93 29 4 4 -11 52 -33 107 -45 109 -124 316 -135 352 -7 25
-9 25 -52 6z"/>
<path d="M8936 9919 c-38 -30 -58 -75 -58 -130 0 -36 8 -61 37 -110 58 -98 48
-159 -26 -159 -28 0 -39 15 -39 52 0 41 -63 65 -75 28 -23 -72 3 -121 75 -145
83 -28 145 -4 182 68 27 53 19 100 -32 194 -22 40 -40 78 -40 85 0 14 46 68
58 68 4 0 18 -7 31 -16 17 -12 22 -23 18 -43 -8 -39 9 -61 45 -61 l30 0 -6
-87 c-7 -81 -14 -134 -32 -235 -6 -34 -4 -38 13 -38 11 0 40 -7 64 -15 44 -16
44 -16 66 12 13 15 23 32 23 36 0 4 20 43 45 87 70 123 155 295 155 314 0 9
-8 16 -19 16 -11 0 -26 2 -33 5 -10 4 -20 -8 -31 -36 l-16 -41 -53 7 c-67 9
-82 22 -68 59 14 39 14 40 -25 52 -28 9 -37 8 -49 -5 -14 -13 -19 -12 -43 11
-41 38 -66 48 -121 48 -35 0 -57 -6 -76 -21z"/>
<path d="M10705 9827 c-49 -11 -91 -22 -93 -23 -2 -1 4 -17 13 -34 18 -35 16
-35 126 -14 l37 6 17 -57 c9 -32 14 -63 11 -70 -2 -7 -30 -19 -60 -25 -60 -12
-70 -28 -42 -65 13 -18 39 -18 104 1 18 5 24 1 36 -27 7 -19 16 -48 19 -66 l6
-32 -74 -16 -75 -17 0 -33 c0 -19 3 -36 8 -38 8 -5 243 40 251 48 3 3 0 20 -6
38 -6 17 -32 109 -58 202 -66 243 -65 240 -100 241 -17 1 -70 -7 -120 -19z"/>
<path d="M9520 9795 c-15 -39 -37 -131 -60 -250 -28 -146 -33 -158 -68 -153
-15 3 -35 8 -44 13 -13 5 -21 0 -30 -20 -10 -23 -10 -29 5 -40 16 -12 98 -27
220 -41 l57 -6 0 35 c0 33 -2 36 -41 42 -39 7 -40 8 -34 38 4 18 25 110 47
205 22 96 37 180 34 188 -3 8 -19 14 -41 14 -29 0 -37 -5 -45 -25z"/>
<path d="M9706 9758 c-3 -24 -14 -113 -26 -198 -23 -179 -26 -259 -7 -265 6
-3 23 -6 36 -7 24 -3 25 1 43 102 10 58 22 148 27 200 5 52 14 114 21 137 18
59 10 73 -44 73 l-45 0 -5 -42z"/>
<path d="M10453 9789 c-54 -16 -73 -51 -73 -132 l0 -70 41 6 c51 7 55 11 41
42 -18 39 -14 64 11 76 23 10 77 -2 77 -18 0 -5 9 -60 20 -123 26 -152 26
-207 0 -215 -30 -10 -58 12 -71 55 -11 35 -16 40 -41 40 -33 0 -54 -34 -44
-73 9 -36 64 -86 103 -93 79 -15 173 43 173 106 0 46 -48 314 -61 343 -7 15
-23 34 -35 42 -31 20 -100 27 -141 14z"/>
<path d="M9900 9782 c-39 -12 -79 -79 -80 -133 0 -56 22 -91 103 -168 65 -62
78 -92 52 -121 -33 -37 -89 -20 -100 30 -4 16 -11 32 -16 36 -16 9 -59 -25
-59 -47 0 -34 29 -78 63 -96 37 -19 113 -21 146 -4 54 29 79 129 47 189 -8 15
-41 53 -75 85 -33 32 -63 67 -66 78 -11 35 3 68 32 75 31 8 53 -15 53 -58 0
-27 2 -28 45 -28 l45 0 0 40 0 40 79 0 79 0 6 -31 c3 -17 6 -46 6 -64 0 -32
-1 -32 -62 -41 -62 -9 -63 -10 -66 -41 l-3 -33 71 0 71 0 -3 -67 -3 -68 -71
-3 c-65 -3 -72 -5 -83 -28 -6 -14 -11 -29 -11 -35 0 -6 51 -9 133 -7 l132 3
-4 65 c-2 36 -6 148 -10 250 l-6 185 -125 0 -125 0 -3 -32 c-4 -41 -10 -41
-43 -2 -21 26 -34 32 -75 35 -27 2 -60 0 -74 -4z"/>
</g>
</svg>
