<?xml version="1.0" standalone="no"?>
<!DOCTYPE svg PUBLIC "-//W3C//DTD SVG 20010904//EN"
 "http://www.w3.org/TR/2001/REC-SVG-20010904/DTD/svg10.dtd">
<svg version="1.0" xmlns="http://www.w3.org/2000/svg"
 width="994.000000pt" height="896.000000pt" viewBox="0 0 994.000000 896.000000"
 preserveAspectRatio="xMidYMid meet">
<metadata>
Created by potrace 1.16, written by Peter Selinger 2001-2019
</metadata>
<g transform="translate(0.000000,896.000000) scale(0.100000,-0.100000)"
fill="#000000" stroke="none">
<path d="M4855 8508 c-237 -9 -469 -40 -689 -90 -101 -23 -376 -100 -446 -125
-259 -92 -616 -263 -821 -393 -725 -460 -1265 -1094 -1604 -1886 -54 -126
-125 -321 -125 -344 0 -9 -6 -24 -13 -34 -13 -17 -19 -17 -138 -2 -169 22
-317 21 -400 -2 -90 -25 -145 -60 -212 -132 -84 -90 -112 -197 -55 -208 10 -2
19 12 27 40 27 91 136 199 234 232 94 32 282 20 752 -48 55 -8 138 -20 185
-26 47 -6 108 -18 135 -25 28 -7 86 -16 130 -20 78 -6 237 -24 400 -44 100
-13 483 -55 675 -76 80 -8 219 -19 310 -25 91 -5 252 -15 358 -22 220 -13 247
-9 247 37 l0 30 -155 7 c-352 15 -613 30 -745 42 -77 7 -151 14 -165 14 -14 1
-113 12 -220 24 -188 22 -195 24 -198 46 -2 14 39 108 106 245 182 368 365
622 643 891 324 313 670 517 1134 669 384 126 918 158 1365 82 145 -24 398
-93 520 -142 154 -61 453 -217 585 -305 203 -134 301 -217 470 -394 171 -180
279 -323 425 -564 59 -97 220 -419 220 -439 0 -17 -95 -28 -540 -66 -162 -14
-344 -30 -405 -35 -60 -5 -195 -15 -300 -21 -345 -19 -388 -23 -393 -36 -10
-31 53 -34 503 -30 439 4 581 11 910 42 184 18 803 93 824 101 24 8 230 32
331 39 144 9 297 32 485 71 200 42 273 42 361 -1 60 -29 135 -107 190 -195 20
-33 40 -57 45 -54 23 14 -28 137 -81 198 -66 74 -227 146 -328 146 -46 0 -301
-26 -390 -39 -67 -10 -73 -4 -102 91 -36 121 -147 383 -235 558 -345 682 -884
1258 -1540 1649 -270 161 -508 270 -784 361 -494 163 -969 230 -1486 208z
m435 -113 c458 -19 974 -146 1406 -348 265 -124 411 -209 639 -371 198 -140
372 -292 575 -503 306 -316 564 -701 756 -1130 76 -169 158 -403 146 -415 -5
-5 -92 -18 -193 -29 -101 -11 -231 -26 -289 -34 -58 -8 -150 -19 -205 -25 -55
-7 -121 -16 -147 -21 -26 -5 -54 -6 -61 -3 -15 5 -33 42 -97 199 -48 117 -174
347 -265 484 -179 269 -461 563 -716 747 -348 252 -877 473 -1279 534 -435 65
-835 51 -1229 -46 -738 -182 -1359 -621 -1785 -1264 -128 -194 -207 -343 -286
-541 -42 -106 -45 -120 -31 -133 8 -9 12 -18 9 -21 -3 -3 -70 4 -149 15 -79
11 -189 22 -244 25 -55 3 -127 12 -160 19 -33 8 -85 17 -115 21 -30 3 -80 10
-110 15 -30 6 -95 13 -143 16 l-89 6 19 21 c11 12 26 42 33 67 56 184 208 532
315 720 87 155 324 495 398 572 7 7 66 73 132 147 329 369 791 709 1245 916
69 31 139 63 155 71 106 49 445 158 620 199 160 37 421 76 570 85 286 18 251
18 575 5z"/>
<path d="M4858 8187 l-108 -9 0 -42 c0 -22 7 -108 15 -191 8 -82 15 -176 15
-208 l0 -58 123 3 122 3 3 28 c4 32 13 34 37 7 55 -61 199 -41 224 31 29 83
10 134 -80 221 -58 57 -69 72 -69 100 0 65 48 79 81 23 46 -77 125 -43 88 37
-18 41 -69 68 -130 68 -85 0 -129 -45 -129 -130 0 -55 11 -73 86 -150 73 -75
87 -112 56 -150 -17 -21 -23 -23 -45 -13 -17 8 -28 24 -34 50 -8 35 -11 38
-43 38 -34 0 -35 -1 -38 -41 l-3 -42 -74 -7 c-41 -4 -79 -4 -85 0 -5 3 -10 40
-10 81 l0 74 66 0 65 0 -3 33 c-3 32 -3 32 -64 35 -69 3 -74 9 -74 90 l0 42
59 0 c82 0 91 5 91 51 0 31 -4 39 -17 37 -10 0 -66 -5 -125 -11z"/>
<path d="M5381 8158 c-11 -27 -28 -145 -37 -243 -3 -38 -12 -106 -20 -149 -16
-89 -13 -96 43 -96 26 0 32 4 37 28 10 48 45 305 52 384 l7 77 -27 11 c-39 14
-45 13 -55 -12z"/>
<path d="M4488 8141 c-49 -31 -58 -46 -58 -96 0 -30 28 -207 45 -292 l7 -31
-58 -7 c-100 -11 -104 -11 -104 19 0 13 -7 40 -15 60 -9 20 -13 41 -10 46 4 6
25 10 48 10 58 0 71 10 62 50 l-7 32 -64 -7 c-73 -8 -75 -6 -88 88 l-7 47 56
0 c73 0 95 12 95 52 l0 31 -72 -7 c-86 -8 -188 -34 -188 -49 0 -5 25 -96 55
-201 30 -105 60 -208 65 -228 12 -44 9 -43 139 -23 53 8 101 21 111 30 16 15
20 14 53 -1 52 -25 121 -12 164 31 29 29 33 39 33 88 0 64 -11 76 -62 70 -41
-6 -45 -16 -26 -58 10 -22 8 -29 -12 -50 -58 -61 -87 -8 -116 206 -16 121 -10
149 30 149 19 0 28 -10 45 -51 25 -56 36 -64 74 -50 33 13 36 51 7 99 -45 74
-125 91 -202 43z"/>
<path d="M5511 8144 c-15 -33 -9 -40 38 -48 22 -3 42 -10 45 -14 3 -4 0 -26
-5 -48 -37 -153 -76 -360 -69 -367 4 -5 23 -10 41 -10 l34 -2 37 155 c20 85
40 176 43 203 l6 47 48 0 c51 0 71 12 71 45 0 18 -12 23 -127 43 -71 12 -133
22 -139 22 -6 0 -16 -12 -23 -26z"/>
<path d="M5850 8040 c-16 -32 -38 -74 -48 -92 -126 -226 -163 -301 -156 -307
5 -5 24 -11 41 -14 29 -6 34 -3 49 26 29 57 31 58 77 40 58 -22 63 -28 50 -63
-13 -35 -5 -45 48 -55 24 -4 39 -3 44 5 5 8 16 3 36 -16 26 -24 40 -29 100
-32 l70 -4 39 41 c63 66 63 116 2 215 -43 69 -40 140 7 165 27 15 65 -23 56
-57 -7 -29 7 -42 46 -42 30 0 39 15 39 67 0 45 -51 98 -103 108 -85 16 -137
-17 -173 -110 l-17 -46 46 -94 c26 -51 47 -98 47 -105 0 -28 -32 -70 -53 -70
-38 0 -48 14 -45 61 l3 44 -44 3 -44 3 7 47 c4 26 11 88 17 137 5 50 14 105
20 123 14 42 3 56 -56 71 -68 17 -73 15 -105 -49z"/>
<path d="M4003 8060 l-22 -9 34 -83 c18 -46 40 -100 49 -120 19 -44 19 -48 6
-48 -5 0 -48 52 -95 115 -47 63 -93 115 -101 115 -8 0 -30 -7 -49 -14 -39 -17
-44 -36 -21 -88 8 -18 31 -78 52 -133 67 -183 105 -265 123 -265 9 0 26 3 39
6 27 8 28 6 -43 174 -85 204 -83 207 41 43 143 -188 134 -179 183 -163 32 10
40 17 35 29 -3 9 -43 113 -88 231 -87 226 -91 232 -143 210z"/>
<path d="M3480 7893 c-58 -25 -107 -47 -109 -48 -3 -4 58 -106 145 -241 18
-28 46 -77 62 -110 53 -104 46 -101 137 -60 44 19 92 38 108 41 37 10 42 21
23 50 -21 31 -34 31 -102 -1 -30 -14 -60 -24 -67 -21 -17 7 -73 120 -62 124
26 9 89 49 92 59 2 6 -4 21 -14 33 l-18 22 -45 -20 c-64 -29 -75 -27 -104 25
-40 71 -36 81 34 101 46 13 60 21 60 35 0 22 -17 58 -28 57 -4 0 -54 -21 -112
-46z"/>
<path d="M6426 7670 c-75 -120 -137 -222 -137 -226 0 -4 67 -35 148 -69 l148
-63 21 20 c12 10 61 73 110 138 48 66 91 117 95 114 7 -4 -11 -52 -90 -232
-17 -38 -31 -75 -31 -81 0 -14 71 -61 83 -54 5 3 37 42 70 88 34 45 98 126
142 180 115 140 115 139 85 164 -14 11 -30 20 -36 21 -7 0 -48 -49 -93 -110
-44 -60 -85 -110 -91 -110 -5 0 -10 2 -10 4 0 9 92 212 100 220 21 21 8 42
-43 69 l-52 28 -20 -27 c-81 -109 -268 -344 -274 -344 -10 0 -141 71 -141 76
0 3 18 32 40 64 l40 59 53 -24 c65 -31 75 -31 83 0 9 35 0 51 -33 58 -15 3
-36 12 -47 20 -18 13 -17 16 19 70 21 31 43 57 49 57 6 0 34 -11 61 -25 61
-30 81 -31 95 -6 13 25 13 51 0 51 -12 0 -112 43 -162 70 -20 11 -39 20 -41
20 -2 0 -66 -99 -141 -220z"/>
<path d="M3268 7799 c-31 -18 -33 -14 124 -227 38 -51 78 -108 89 -127 20 -34
20 -34 0 -44 -50 -27 -80 -10 -145 82 -74 106 -169 242 -172 246 -5 6 -48 -8
-68 -22 -19 -14 8 -53 250 -364 22 -29 30 -33 75 -33 89 0 149 42 149 105 0
46 5 38 -153 258 -98 137 -111 148 -149 126z"/>
<path d="M2944 7614 c-17 -8 -44 -28 -59 -44 -56 -59 -34 -108 133 -288 126
-136 170 -149 276 -82 32 20 54 28 70 24 26 -6 51 18 42 41 -3 8 -17 15 -31
15 -18 0 -32 11 -52 43 -14 23 -50 67 -78 97 -28 30 -73 81 -99 112 -79 94
-133 116 -202 82z m152 -151 c48 -49 104 -110 126 -138 l40 -49 -22 -18 c-48
-39 -72 -22 -240 171 l-73 85 23 18 c12 10 31 18 41 18 11 0 57 -39 105 -87z"/>
<path d="M7074 7366 c-89 -85 -168 -169 -177 -187 -20 -42 -5 -74 55 -118 62
-45 111 -43 176 8 67 53 322 291 322 300 0 4 -15 16 -34 26 l-34 19 -147 -140
c-80 -76 -161 -148 -180 -159 -33 -19 -34 -19 -55 0 -11 10 -19 24 -18 29 2 6
73 78 158 161 85 82 157 153 159 158 4 11 -39 57 -53 57 -6 0 -84 -69 -172
-154z"/>
<path d="M2605 7358 c-31 -17 -76 -61 -90 -89 -13 -23 -12 -29 9 -60 24 -35
218 -212 262 -239 13 -8 24 -19 24 -25 0 -6 -20 -31 -45 -55 l-45 -44 -87 61
c-49 34 -139 96 -201 139 l-114 78 -19 -24 c-10 -14 -19 -30 -19 -36 0 -6 30
-32 68 -57 37 -25 133 -93 214 -151 81 -59 153 -106 160 -106 20 0 132 121
138 150 4 21 10 24 33 22 49 -6 147 78 147 126 0 10 -11 33 -24 50 -29 40
-270 242 -309 260 -34 15 -75 15 -102 0z m88 -90 c41 -21 232 -191 241 -214
11 -26 -6 -54 -33 -54 -19 0 -178 124 -253 196 -40 39 -46 49 -37 65 11 22 49
25 82 7z"/>
<path d="M7370 7233 c-63 -52 -157 -126 -208 -165 l-94 -70 23 -24 c12 -13 27
-24 33 -24 10 0 147 107 259 200 20 18 37 27 37 21 0 -7 -50 -77 -111 -156
l-110 -145 32 -28 c18 -15 36 -27 40 -27 4 0 36 23 71 52 102 83 259 206 311
243 26 18 47 39 47 46 0 15 -38 44 -58 44 -8 0 -44 -26 -80 -58 -81 -70 -142
-116 -148 -110 -4 4 44 71 125 173 l44 56 -33 34 c-19 19 -41 35 -49 34 -9 0
-68 -44 -131 -96z"/>
<path d="M7760 6986 c-40 -15 -306 -170 -334 -195 -10 -9 -27 -29 -38 -44 -25
-35 -15 -65 39 -120 43 -44 82 -48 168 -16 62 23 73 38 57 75 -14 30 -23 30
-87 -1 -28 -14 -59 -23 -68 -20 -24 10 -29 36 -11 56 20 22 213 140 278 169
48 22 49 22 68 2 25 -25 12 -55 -32 -70 -36 -13 -37 -18 -6 -56 l23 -30 46 27
c60 36 90 74 82 106 -9 36 -41 77 -78 99 -47 29 -68 32 -107 18z"/>
<path d="M2129 6877 c-38 -26 -79 -81 -79 -108 0 -33 48 -74 151 -131 305
-165 301 -164 373 -93 48 46 58 83 36 125 -22 40 -366 230 -418 230 -16 0 -44
-10 -63 -23z m239 -144 c90 -47 166 -93 169 -101 3 -7 -5 -25 -19 -39 l-25
-25 -59 30 c-120 61 -260 143 -276 163 -22 26 -8 59 25 59 12 0 96 -39 185
-87z"/>
<path d="M7765 6659 c-132 -66 -244 -124 -249 -129 -8 -8 132 -231 154 -245 5
-3 83 25 173 63 89 39 203 84 252 101 50 18 94 36 98 40 13 13 -21 71 -41 71
-10 0 -70 -22 -133 -49 -273 -116 -312 -132 -325 -127 -8 3 -14 11 -14 17 0 7
-12 27 -26 46 -14 19 -24 39 -21 46 2 7 94 54 203 106 110 51 204 99 211 105
15 14 -9 76 -29 76 -7 0 -121 -55 -253 -121z"/>
<path d="M1929 6619 c-28 -30 -94 -138 -88 -143 2 -1 40 -16 84 -34 44 -17
161 -67 259 -111 127 -57 183 -77 192 -70 7 5 29 44 49 85 57 115 48 125 -214
238 -186 80 -234 86 -282 35z m132 -58 c30 -10 82 -31 114 -46 33 -15 83 -36
112 -46 59 -23 76 -39 71 -70 -7 -50 -27 -47 -210 31 -95 40 -177 77 -182 81
-7 6 28 69 38 69 2 0 27 -8 57 -19z"/>
<path d="M7955 6373 c-147 -48 -175 -61 -207 -93 -50 -50 -51 -86 -2 -140 43
-48 76 -56 164 -38 65 13 65 13 63 46 0 19 -4 36 -7 40 -4 3 -36 0 -71 -7 -52
-11 -68 -11 -80 -1 -23 19 -18 38 13 54 41 21 318 116 340 116 25 0 42 -19 42
-47 0 -17 -8 -24 -40 -33 -47 -13 -53 -21 -40 -54 11 -30 34 -33 88 -11 98 41
111 115 34 198 -40 43 -95 37 -297 -30z"/>
<path d="M1824 6390 c-55 -22 -90 -119 -60 -165 26 -40 69 -61 221 -109 209
-66 221 -69 260 -56 67 22 109 102 83 157 -19 39 -71 65 -258 128 -163 54
-205 62 -246 45z m226 -121 c160 -53 210 -74 210 -87 0 -5 -6 -16 -14 -27 -19
-27 -81 -15 -261 48 -154 53 -174 68 -145 102 19 23 43 19 210 -36z"/>
<path d="M8308 6185 c-2 -3 -101 -29 -219 -59 -118 -30 -231 -61 -251 -70 -40
-17 -48 -39 -25 -69 11 -15 17 -15 82 3 79 23 139 26 133 8 -2 -6 -42 -36 -89
-65 -46 -30 -86 -58 -88 -64 -5 -16 20 -59 35 -59 7 0 70 38 141 85 l127 86
56 -6 c30 -4 95 -13 144 -21 48 -8 91 -13 94 -10 8 9 -20 66 -37 76 -9 4 -70
12 -135 16 -141 8 -139 17 8 53 100 25 104 28 86 75 -6 18 -17 26 -33 26 -13
0 -26 -2 -29 -5z"/>
<path d="M1697 6173 c-2 -5 -12 -33 -22 -63 -10 -30 -26 -72 -36 -92 -29 -57
-25 -75 16 -82 44 -9 52 -4 60 34 4 17 10 30 14 30 5 0 53 -11 107 -24 252
-62 353 -86 367 -86 14 0 44 56 35 65 -2 2 -100 29 -218 59 -118 30 -225 58
-237 62 -19 5 -23 14 -23 43 0 20 -5 42 -12 49 -13 13 -44 16 -51 5z"/>
<path d="M5594 7005 c-59 -61 -111 -76 -304 -82 -85 -3 -211 0 -280 6 -210 20
-606 26 -712 11 -167 -23 -302 -79 -365 -154 -49 -58 -83 -145 -83 -212 0 -53
5 -69 33 -110 39 -58 103 -96 144 -85 22 6 27 13 25 32 -15 140 -14 164 10
208 53 99 173 141 400 141 153 0 154 -1 119 -62 -11 -18 -46 -112 -79 -208
-33 -96 -72 -206 -86 -245 -59 -154 -202 -673 -231 -836 -20 -114 -19 -155 6
-207 38 -77 147 -125 230 -101 59 18 63 28 60 142 -3 128 20 264 93 547 81
316 89 347 151 550 31 102 65 217 76 255 23 81 62 145 87 145 9 0 92 -11 184
-24 143 -21 184 -23 280 -16 178 13 261 49 309 133 19 33 24 56 23 107 0 66
-15 110 -37 110 -7 -1 -31 -21 -53 -45z"/>
<path d="M5075 6347 c-48 -16 -84 -34 -107 -55 -17 -14 -16 -17 13 -50 31 -34
31 -38 26 -106 -3 -39 -26 -152 -52 -251 -87 -338 -94 -420 -46 -520 15 -33
40 -71 54 -84 58 -53 193 -47 301 14 76 42 123 95 160 178 13 31 30 57 35 57
6 0 11 -21 11 -47 0 -63 14 -111 45 -153 41 -55 72 -70 148 -70 84 0 123 19
209 99 50 47 74 80 115 162 61 121 70 164 35 164 -19 0 -31 -15 -62 -72 -65
-123 -125 -183 -179 -183 -45 0 -63 107 -32 190 11 30 50 174 87 320 69 276
72 307 39 370 -19 37 -88 53 -170 40 -81 -13 -91 -26 -100 -118 -10 -121 -32
-215 -86 -376 -82 -243 -134 -330 -233 -387 -60 -34 -70 -35 -95 -10 -38 38
-43 90 -20 187 11 49 27 100 34 114 7 14 15 45 19 69 4 24 15 67 25 95 30 85
55 237 47 287 -8 52 -35 101 -69 123 -33 22 -105 28 -152 13z"/>
<path d="M3496 6213 c-3 -26 -8 -74 -12 -106 l-6 -57 -67 -37 c-125 -68 -123
-57 -23 -109 48 -25 90 -49 94 -53 4 -3 15 -49 24 -101 8 -52 18 -97 21 -100
4 -4 19 10 101 105 l34 37 90 -11 c50 -7 95 -13 102 -14 17 -3 12 11 -39 102
l-47 84 41 91 c46 101 48 111 25 102 -10 -4 -44 -10 -78 -15 -34 -5 -69 -12
-79 -16 -13 -5 -37 12 -96 70 l-79 76 -6 -48z"/>
<path d="M6491 6178 c0 -18 4 -60 8 -93 5 -33 5 -67 0 -75 -4 -8 -37 -37 -73
-65 -36 -27 -65 -53 -65 -56 -1 -4 40 -17 89 -30 50 -12 96 -30 103 -38 7 -9
26 -49 41 -88 15 -40 31 -75 36 -78 4 -3 29 31 54 74 26 44 54 82 62 85 9 3
54 6 100 6 46 0 84 3 84 8 0 4 -30 40 -66 81 -45 50 -63 78 -59 90 16 40 42
171 34 171 -14 0 -123 -42 -133 -51 -21 -19 -60 -7 -129 38 -92 61 -87 60 -86
21z"/>
<path d="M1188 5309 c-261 -21 -568 -148 -735 -304 -58 -53 -81 -84 -114 -150
-50 -100 -70 -209 -50 -274 25 -86 131 -171 210 -171 51 0 151 50 151 74 0 8
-13 42 -29 76 -54 113 -50 227 12 328 50 84 103 132 192 172 183 84 292 105
509 98 132 -5 147 -8 241 -43 158 -58 217 -100 299 -209 80 -107 122 -219 131
-358 18 -254 -68 -514 -239 -728 -179 -222 -348 -321 -641 -371 -211 -37 -404
-12 -543 70 -68 40 -112 95 -112 139 0 11 -9 31 -21 46 -27 34 -71 34 -116 0
-43 -33 -62 -71 -69 -142 -8 -73 6 -102 78 -167 63 -57 103 -77 188 -98 145
-36 592 -30 755 9 112 28 391 154 496 225 139 93 280 232 367 364 57 86 133
265 156 365 9 41 21 91 26 111 5 19 12 80 16 135 13 211 -69 427 -219 574 -71
71 -176 130 -316 180 -105 37 -121 40 -287 50 -192 11 -194 11 -336 -1z"/>
<path d="M9115 5061 c-96 -27 -184 -97 -255 -201 -105 -155 -217 -412 -226
-523 -7 -79 20 -285 44 -340 51 -114 170 -165 289 -124 65 22 194 109 216 145
10 17 25 32 32 32 7 0 24 -18 38 -39 32 -48 79 -84 130 -101 48 -15 148 -5
198 21 55 27 131 119 193 233 58 105 69 153 40 177 -14 11 -20 9 -43 -17 -14
-16 -35 -43 -46 -58 -61 -87 -84 -113 -118 -131 -34 -19 -37 -19 -53 -3 -12
12 -19 39 -22 95 -4 84 7 140 88 423 60 211 98 353 102 375 3 19 -4 20 -122
26 -281 14 -457 18 -485 10z m240 -157 c38 -25 39 -61 5 -153 -16 -45 -42
-128 -56 -183 -41 -165 -83 -247 -201 -395 -30 -38 -39 -43 -75 -43 -32 0 -46
6 -70 32 -31 33 -31 33 -24 120 3 48 14 120 24 160 11 40 27 105 36 143 36
146 141 301 219 324 51 15 116 12 142 -5z"/>
<path d="M8130 5039 c-89 -23 -163 -66 -235 -136 -68 -66 -83 -121 -68 -260
l10 -91 79 -85 c43 -47 114 -113 157 -147 81 -65 115 -108 136 -173 16 -47 9
-76 -26 -118 -78 -92 -195 -76 -254 35 -20 39 -22 49 -11 66 17 27 15 81 -4
108 -14 20 -21 21 -72 16 -50 -6 -63 -12 -106 -53 -83 -79 -100 -96 -139 -144
-42 -52 -62 -57 -96 -25 -22 19 -23 27 -18 97 3 51 19 117 47 201 66 198 80
270 80 400 0 90 -4 124 -19 155 -34 75 -91 104 -208 105 -64 0 -79 -4 -151
-41 -115 -59 -144 -86 -183 -174 -18 -41 -38 -74 -43 -72 -7 3 -10 33 -8 81
l3 77 -36 35 c-24 22 -46 34 -65 34 -16 0 -50 5 -77 11 -43 10 -53 9 -88 -9
-22 -12 -53 -32 -70 -46 -27 -23 -28 -27 -13 -36 9 -6 26 -26 39 -46 20 -32
21 -44 15 -117 -8 -112 -34 -243 -99 -497 -68 -270 -75 -318 -48 -351 17 -22
27 -24 98 -24 85 0 124 14 154 55 19 25 54 155 84 310 20 105 80 300 110 360
35 68 122 188 147 201 26 14 117 6 147 -13 12 -7 24 -20 26 -29 6 -19 -25
-183 -84 -441 -47 -203 -52 -287 -21 -347 37 -74 107 -111 183 -97 48 9 175
72 215 107 41 36 38 37 188 -25 126 -52 199 -65 306 -55 168 16 304 113 339
242 17 64 14 216 -5 263 -17 41 -83 110 -247 255 -84 75 -134 152 -123 193 3
14 24 41 45 61 35 32 45 35 97 35 59 0 101 -22 103 -53 1 -14 4 -72 7 -134 2
-42 2 -43 39 -43 65 0 118 27 143 72 79 140 -70 330 -255 327 -27 0 -84 -9
-125 -20z"/>
<path d="M1050 5019 c-52 -21 -60 -37 -60 -118 0 -42 -9 -132 -20 -200 -37
-226 -175 -833 -240 -1056 -25 -87 -25 -107 0 -130 21 -19 37 -18 128 8 60 16
87 38 137 111 29 42 43 85 85 251 28 110 59 241 70 290 10 50 25 119 34 155
80 355 106 491 106 560 0 76 -15 105 -66 126 -38 16 -137 18 -174 3z"/>
<path d="M6078 4921 c-160 -73 -239 -134 -330 -256 -126 -170 -165 -300 -155
-518 9 -183 52 -256 192 -327 62 -32 78 -35 165 -38 124 -5 231 22 318 79 132
86 238 225 217 285 -6 15 -18 32 -28 38 -16 9 -30 -1 -100 -75 -87 -92 -178
-149 -237 -149 -56 0 -143 37 -177 76 -35 39 -66 120 -61 156 3 25 19 32 173
73 222 60 361 160 437 315 34 69 32 180 -4 240 -26 45 -98 105 -150 128 -15 6
-56 14 -90 16 -59 5 -70 2 -170 -43z m139 -145 c25 -22 28 -31 27 -81 -3 -99
-82 -228 -169 -272 -56 -29 -170 -62 -180 -52 -11 11 35 158 73 234 31 62 93
146 128 174 36 28 86 27 121 -3z"/>
<path d="M5109 4880 c-104 -18 -162 -64 -258 -208 -23 -34 -46 -60 -51 -57 -5
3 -8 34 -7 69 1 52 -2 69 -23 99 -24 35 -75 67 -108 67 -37 0 -123 -28 -157
-51 -27 -19 -35 -31 -35 -55 0 -18 8 -38 19 -48 42 -38 26 -269 -39 -564 -11
-52 -31 -151 -45 -220 -26 -140 -86 -399 -136 -594 -31 -121 -32 -127 -16
-152 13 -20 26 -26 53 -26 59 0 169 67 209 128 27 42 90 277 126 475 13 70 26
127 29 126 3 0 19 -21 35 -46 40 -62 69 -82 135 -92 109 -18 232 22 348 111
131 101 232 299 267 523 37 237 -31 427 -180 502 -30 15 -114 22 -166 13z
m-11 -236 c32 -22 61 -84 68 -147 20 -171 -83 -491 -188 -582 -24 -20 -60 -46
-81 -56 -38 -20 -39 -20 -75 -1 -44 23 -97 89 -111 139 -24 88 75 430 164 563
27 41 61 80 75 87 35 18 121 16 148 -3z"/>
<path d="M3864 4820 c-111 -23 -225 -113 -279 -220 -24 -48 -27 -62 -23 -139
3 -82 5 -89 44 -146 54 -78 80 -103 191 -186 99 -75 146 -123 170 -174 21 -44
7 -80 -53 -135 -39 -36 -49 -40 -96 -40 -64 0 -127 32 -147 75 -12 24 -12 40
-2 87 15 74 2 108 -49 124 -36 12 -95 -1 -128 -29 -23 -19 -63 -116 -65 -158
-2 -55 68 -143 148 -186 113 -60 273 -66 387 -14 24 11 64 28 89 39 32 14 63
39 99 83 74 88 94 138 95 224 0 63 -4 78 -43 152 -39 74 -51 87 -118 133 -195
135 -265 206 -278 280 -12 73 35 108 147 109 49 1 62 -3 83 -25 25 -24 26 -29
19 -95 -8 -78 6 -112 51 -129 40 -16 109 22 148 81 63 97 25 209 -89 264 -46
23 -70 28 -157 31 -57 2 -122 -1 -144 -6z"/>
<path d="M3014 4776 c-124 -24 -241 -105 -350 -238 -146 -180 -212 -399 -180
-596 13 -81 20 -98 65 -166 60 -88 107 -122 201 -148 180 -47 376 9 520 151
98 96 148 215 106 250 -19 16 -41 5 -69 -37 -40 -61 -98 -111 -167 -145 -135
-66 -287 -29 -346 85 -18 34 -18 89 0 113 15 21 85 45 133 45 41 0 194 66 268
115 56 38 142 130 170 184 7 15 19 57 26 93 27 145 -52 267 -192 297 -61 13
-106 13 -185 -3z m110 -159 c16 -33 17 -46 7 -99 -13 -77 -53 -158 -106 -215
-32 -34 -61 -51 -139 -83 -55 -21 -103 -37 -107 -34 -11 6 75 244 117 325 27
52 48 76 92 108 74 53 109 53 136 -2z"/>
<path d="M9768 3572 c-29 -98 -50 -121 -173 -182 l-110 -55 -312 0 c-304 0
-313 -1 -327 -20 -8 -12 -38 -86 -67 -165 -309 -853 -834 -1511 -1618 -2027
-219 -144 -569 -309 -866 -408 -260 -86 -629 -161 -908 -184 -162 -14 -515
-14 -683 -1 -523 41 -1004 182 -1499 439 -614 319 -1200 875 -1555 1475 -27
46 -104 192 -171 325 -108 213 -125 241 -146 241 -13 0 -124 -10 -246 -22
-122 -13 -274 -23 -337 -23 -110 0 -118 2 -175 32 -123 65 -159 95 -169 138
-12 59 -27 85 -48 85 -28 0 -23 -65 11 -130 22 -43 42 -64 91 -97 136 -92 229
-109 472 -88 95 8 215 16 267 17 l93 3 34 -79 c134 -316 412 -759 639 -1016
455 -515 1001 -902 1612 -1144 656 -258 1439 -339 2133 -221 190 32 313 61
593 140 237 67 668 271 929 442 345 223 615 459 921 801 69 77 251 325 330
449 143 226 326 604 406 838 27 77 29 80 67 88 21 5 143 6 269 3 259 -7 296
-2 391 55 41 25 73 56 116 112 62 84 64 90 72 180 6 76 -13 76 -36 -1z"/>
<path d="M2248 3464 c-4 -3 -98 -9 -209 -12 -170 -6 -204 -10 -206 -22 -7 -36
9 -40 200 -43 169 -3 189 -5 201 -22 15 -20 96 -210 121 -284 36 -103 191
-353 344 -551 131 -171 407 -429 626 -587 318 -229 727 -410 1088 -482 263
-53 349 -63 593 -68 325 -7 494 16 914 127 211 56 219 59 395 147 339 171 621
370 853 605 266 270 430 504 619 883 108 216 112 222 148 230 23 5 204 12 408
15 5 0 7 15 5 33 l-3 32 -270 0 -269 0 -61 -140 c-105 -241 -151 -324 -301
-550 -229 -344 -551 -651 -904 -863 -224 -135 -495 -247 -760 -316 -683 -178
-1418 -98 -2051 225 -354 180 -710 475 -956 790 -154 198 -331 495 -423 712
-54 128 -80 163 -102 141z"/>
<path d="M3140 3291 c0 -49 -3 -96 -6 -105 -3 -9 -42 -37 -85 -62 -43 -26 -79
-50 -79 -53 0 -3 41 -24 90 -45 74 -33 92 -45 97 -65 3 -15 12 -51 19 -81 8
-30 14 -62 14 -72 0 -31 16 -20 76 52 l58 70 56 0 c30 -1 74 -5 97 -9 23 -5
45 -6 47 -4 3 3 -17 41 -45 84 -27 43 -49 86 -49 95 0 10 14 55 32 100 17 46
29 86 27 89 -3 2 -41 -5 -84 -15 -44 -11 -87 -20 -95 -20 -8 0 -46 29 -85 65
-38 35 -73 64 -77 65 -5 0 -8 -40 -8 -89z"/>
<path d="M5560 3309 c-13 -5 -39 -21 -57 -34 -17 -14 -35 -25 -38 -25 -4 0
-25 14 -47 31 -37 30 -42 31 -77 20 -21 -6 -49 -11 -63 -11 -44 0 -155 -44
-277 -110 l-120 -65 -1 -65 c0 -36 3 -95 6 -132 l7 -67 19 24 c11 14 24 25 29
25 15 0 129 -83 123 -89 -3 -3 -38 -9 -77 -12 -40 -4 -90 -10 -112 -14 -74
-12 -87 16 -74 164 5 61 13 91 28 112 12 16 17 29 11 29 -44 0 -268 -159 -357
-253 -61 -65 -67 -84 -60 -188 4 -57 2 -79 -7 -79 -20 0 -176 151 -281 273
-55 64 -118 148 -140 188 -22 40 -45 74 -52 76 -31 10 -132 -118 -164 -209
-15 -45 0 -71 35 -62 16 4 37 -7 79 -41 39 -33 65 -47 84 -46 84 3 110 -1 134
-19 15 -10 40 -22 55 -26 16 -4 44 -20 62 -36 l33 -28 -114 0 c-117 0 -153 7
-222 42 -49 25 -114 85 -126 116 -6 17 -16 22 -32 20 -22 -3 -22 -5 -21 -143
0 -133 2 -144 33 -230 19 -49 46 -108 62 -130 54 -79 220 -224 303 -267 33
-17 53 -20 117 -16 76 5 77 4 94 -24 26 -45 94 -105 144 -129 82 -39 231 -21
299 36 27 22 34 24 84 16 30 -5 78 -17 106 -26 78 -26 243 -17 336 18 l69 26
36 -29 c41 -33 94 -48 114 -32 7 6 39 10 70 9 45 -2 60 -7 72 -24 14 -20 75
-63 89 -63 3 0 6 10 6 23 0 13 12 34 26 48 20 18 25 32 22 56 -4 30 -1 33 47
50 41 15 50 23 50 42 0 18 -8 26 -34 35 -19 6 -36 16 -38 22 -2 6 36 28 84 49
49 21 103 49 121 62 39 29 59 25 119 -23 23 -19 46 -34 52 -34 10 0 42 24 76
57 7 7 41 29 74 48 34 20 61 40 61 45 0 12 -75 60 -94 60 -18 0 -46 38 -40 55
3 6 19 18 37 26 24 10 33 22 35 43 l4 28 -84 -3 c-73 -4 -87 -7 -121 -33 -41
-31 -56 -30 -36 2 11 18 8 30 -21 88 -56 112 -129 178 -250 229 -86 36 -203
66 -213 56 -8 -8 16 -19 179 -79 120 -45 195 -116 251 -238 21 -45 24 -66 20
-105 -14 -115 -94 -215 -221 -275 -66 -31 -89 -37 -222 -49 -162 -16 -171 -14
-176 38 l-3 32 -18 -34 c-18 -33 -18 -33 3 -48 27 -19 20 -24 -68 -54 -51 -17
-62 -24 -57 -38 5 -16 -4 -19 -77 -24 -178 -14 -337 -3 -366 26 -12 12 -10 18
12 42 28 30 51 120 41 163 -15 71 -111 181 -218 249 -61 39 -73 43 -131 43
-66 0 -96 6 -96 20 0 18 86 89 143 117 34 17 103 40 152 51 173 40 236 37 309
-13 31 -21 40 -23 56 -13 15 10 27 10 53 0 18 -7 43 -12 54 -12 35 0 127 -51
197 -109 36 -30 66 -59 66 -64 0 -6 14 -32 31 -60 35 -57 35 -76 -1 -186 -12
-35 -19 -65 -16 -68 8 -9 51 22 51 37 0 9 7 14 18 12 18 -3 23 13 7 23 -6 4
-7 13 -1 23 16 30 -1 147 -28 197 -9 17 -32 46 -51 65 -19 20 -42 46 -50 58
-8 12 -18 22 -23 22 -14 0 -37 27 -29 34 3 4 -1 4 -11 0 -11 -4 -19 0 -23 10
-3 9 -10 13 -15 10 -10 -6 -49 13 -49 24 0 4 19 16 43 27 23 11 58 34 77 51
43 38 92 64 120 64 27 0 21 21 -10 37 -21 10 -29 7 -74 -34 -101 -91 -181
-135 -229 -126 -52 10 -22 78 41 89 57 10 128 53 194 116 58 56 61 57 98 49
22 -5 59 -5 84 0 55 10 141 46 157 65 6 7 33 17 60 20 77 10 89 58 18 73 -43
9 -44 29 -3 56 30 19 81 92 71 101 -2 3 -30 -7 -62 -21 -49 -21 -56 -27 -45
-40 19 -22 5 -45 -28 -45 -28 0 -62 -26 -62 -47 0 -6 18 -14 39 -18 32 -5 74
-31 60 -36 -2 -1 -48 -3 -103 -4 -94 -2 -97 -1 -70 14 16 8 37 14 47 12 9 -1
17 3 17 9 0 8 -14 9 -43 5 -40 -6 -48 -3 -95 32 -29 21 -52 43 -52 50 0 6 21
30 48 52 34 30 56 41 80 41 17 0 32 -4 32 -10 0 -5 -12 -10 -27 -10 -36 -1
-86 -41 -81 -66 3 -16 13 -19 58 -20 30 0 63 -4 73 -8 12 -6 17 -4 17 6 0 8
11 20 25 26 30 14 32 28 5 42 -11 6 -20 16 -20 22 0 6 10 4 24 -5 22 -15 25
-15 40 2 21 23 20 33 -1 30 -34 -3 -42 1 -36 17 5 15 3 15 -25 0 -38 -19 -43
-20 -36 -2 4 10 -10 15 -55 19 -33 4 -77 9 -98 12 -21 2 -49 0 -63 -6z m83
-25 c3 -4 -15 -26 -40 -50 -40 -38 -51 -44 -89 -44 -24 0 -44 -4 -44 -9 0 -16
57 -51 82 -51 26 0 48 -17 48 -37 0 -7 -6 -13 -14 -13 -25 0 -30 -22 -10 -37
12 -9 32 -12 55 -9 26 4 40 1 49 -9 8 -10 31 -15 67 -15 88 0 52 -16 -53 -23
-108 -7 -132 0 -189 57 -40 40 -61 73 -69 108 -5 21 -2 28 14 33 11 3 20 12
20 19 0 8 9 12 23 9 16 -3 40 8 77 36 56 42 62 45 73 35z m-233 -20 c0 -4 -16
-27 -36 -51 -38 -46 -38 -57 -1 -58 17 0 23 -8 30 -42 8 -40 41 -80 106 -125
13 -9 20 -21 16 -27 -9 -16 -65 -13 -99 4 -44 23 -44 18 3 -29 l43 -44 -42 0
c-38 -1 -49 6 -123 72 -45 40 -83 80 -85 89 -3 15 0 15 33 1 43 -17 55 -12 32
14 -10 11 -16 35 -15 70 0 56 -4 51 78 107 35 23 60 31 60 19z m-166 -11 c3
-4 -6 -17 -21 -29 -24 -19 -28 -29 -28 -73 0 -55 -8 -64 -25 -30 -20 37 -23
12 -5 -43 27 -81 51 -114 122 -164 75 -54 72 -66 -14 -68 -67 -1 -76 4 -170
105 -59 64 -95 136 -74 149 5 3 11 19 13 35 4 36 36 61 89 70 20 4 47 17 60
31 23 24 40 30 53 17z m-244 -184 c0 -59 25 -104 102 -179 67 -65 71 -70 46
-70 -44 0 -76 17 -127 68 -60 60 -97 136 -82 170 6 13 11 34 11 47 0 13 6 25
13 28 19 7 37 -23 37 -64z m-1033 -85 c18 -26 101 -125 167 -199 27 -31 32
-41 19 -43 -21 -5 -94 48 -193 141 l-83 77 23 25 c30 32 45 31 67 -1z m783
-56 c1 -36 9 -87 20 -118 26 -73 25 -80 -7 -78 -20 1 -44 18 -80 56 -29 30
-53 58 -53 62 0 5 12 10 28 12 25 3 27 6 27 51 0 37 5 52 19 63 38 27 46 18
46 -48z m-185 -204 c32 -42 31 -55 -5 -87 -16 -15 -39 -45 -51 -68 -27 -55
-39 -38 -39 57 0 82 15 171 32 191 10 12 14 9 25 -23 7 -20 24 -52 38 -70z
m-635 -82 c72 -40 171 -60 310 -61 85 -1 125 -19 115 -52 -5 -16 -1 -19 24
-19 16 0 41 4 54 9 18 7 30 6 43 -3 16 -12 9 -15 -55 -21 -47 -5 -71 -11 -68
-19 2 -6 12 -13 23 -15 50 -9 56 -38 17 -80 -27 -27 -35 -29 -178 -45 -82 -9
-189 -16 -236 -16 l-86 0 -32 46 c-31 43 -71 134 -71 161 0 17 20 17 20 1 0
-7 42 -33 93 -58 81 -40 102 -45 172 -49 79 -3 210 14 220 29 8 13 -35 19
-178 24 -110 4 -146 8 -175 23 -101 52 -128 69 -144 87 -21 22 -24 87 -6 116
12 19 13 19 43 -1 16 -11 59 -36 95 -57z m597 -193 c7 -7 23 -7 53 1 40 11 47
9 107 -21 74 -37 142 -94 172 -143 16 -25 21 -50 21 -102 0 -105 -14 -140 -78
-202 -72 -69 -120 -91 -198 -92 -51 0 -68 5 -107 31 -60 40 -124 114 -137 159
-28 99 -1 205 71 284 28 31 52 64 54 73 2 10 4 19 4 21 2 6 28 1 38 -9z m-192
-170 c-9 -17 -20 -49 -23 -72 l-8 -42 -117 -3 c-134 -3 -163 7 -232 77 -40 42
-39 51 5 26 33 -19 89 -19 111 0 20 19 140 42 222 44 l58 1 -16 -31z"/>
<path d="M4543 2251 c-42 -26 -83 -79 -83 -108 0 -29 61 -96 68 -75 2 8 -8 26
-22 41 -14 15 -26 35 -26 44 0 21 76 77 105 77 19 0 65 -37 65 -52 0 -3 -20
-11 -45 -17 -27 -7 -45 -17 -45 -26 0 -25 17 -25 62 0 41 23 46 23 66 9 30
-20 28 -27 -15 -68 -35 -33 -36 -36 -15 -36 21 0 72 43 72 60 0 25 -32 71 -75
111 -62 57 -75 62 -112 40z"/>
<path d="M6786 3224 c-49 -30 -92 -54 -96 -54 -4 0 -47 18 -95 40 -48 23 -90
39 -93 36 -2 -3 0 -45 7 -94 6 -49 11 -96 11 -105 0 -10 -36 -55 -80 -101
l-81 -84 63 -6 c35 -4 84 -9 109 -12 l47 -6 37 -89 c20 -49 41 -89 46 -89 7 0
23 28 90 161 17 35 23 38 111 59 51 12 102 24 113 27 16 5 7 17 -59 79 -56 53
-76 78 -72 91 3 10 12 52 21 93 9 41 18 83 21 93 8 25 -2 21 -100 -39z"/>
<path d="M2093 3076 c-44 -29 -102 -70 -128 -90 -55 -42 -82 -44 -210 -21 -44
8 -92 14 -107 15 -25 0 -28 -4 -28 -34 0 -39 -6 -37 168 -57 56 -7 102 -16
102 -21 0 -12 -46 -28 -80 -28 -30 0 -119 -26 -132 -39 -4 -4 -2 -22 4 -39 10
-26 17 -32 33 -27 11 4 88 24 170 46 83 22 188 50 235 63 47 13 97 27 113 30
20 5 27 12 27 30 0 42 -18 46 -105 26 -83 -20 -145 -25 -145 -12 0 4 41 33 90
64 89 56 90 58 90 97 0 22 -4 42 -8 45 -5 3 -45 -19 -89 -48z"/>
<path d="M7826 2988 c-7 -18 -12 -36 -9 -40 2 -3 111 -33 244 -65 223 -54 239
-59 234 -78 -13 -41 -9 -56 18 -73 27 -16 29 -16 42 2 17 22 75 193 75 219 0
9 -6 17 -14 17 -8 0 -21 3 -30 6 -11 4 -22 -5 -37 -30 -11 -20 -28 -36 -37
-36 -10 0 -115 25 -236 55 -120 30 -222 55 -227 55 -5 0 -15 -15 -23 -32z"/>
<path d="M7760 2820 c-40 -43 -55 -93 -40 -130 14 -35 73 -62 279 -130 208
-69 251 -66 292 24 46 101 17 130 -196 199 -248 80 -290 85 -335 37z m185 -79
c202 -64 275 -93 275 -110 0 -24 -20 -41 -49 -41 -37 0 -362 111 -368 126 -7
19 15 54 35 54 10 0 58 -13 107 -29z"/>
<path d="M2140 2822 c-53 -17 -55 -19 -55 -52 0 -31 3 -35 25 -34 14 1 39 7
56 14 58 25 117 -13 77 -50 -19 -18 -248 -102 -320 -118 -75 -17 -125 31 -64
62 16 9 39 16 51 16 14 0 20 6 20 23 0 54 -53 62 -122 18 -54 -34 -69 -80 -43
-130 20 -39 75 -81 106 -81 34 0 118 24 156 43 18 10 42 17 55 17 13 0 32 7
42 15 11 8 27 15 35 15 24 0 137 56 160 79 27 27 27 63 -1 112 -21 38 -69 70
-105 68 -10 0 -43 -8 -73 -17z"/>
<path d="M7661 2617 c-15 -23 -38 -61 -50 -85 -21 -40 -21 -45 -7 -67 25 -37
20 -45 -28 -45 -40 0 -48 -4 -85 -46 -81 -93 -49 -140 179 -261 164 -87 207
-101 250 -83 37 15 87 71 96 106 11 42 -14 70 -114 134 -52 34 -92 63 -90 66
3 2 43 -14 90 -36 152 -73 193 -67 263 42 25 38 45 74 45 81 0 7 -53 33 -118
59 -64 26 -181 76 -259 112 l-143 65 -29 -42z m279 -157 c52 -22 110 -48 128
-56 27 -12 31 -17 23 -32 -21 -39 -36 -44 -88 -28 -64 19 -260 102 -291 122
-19 12 -22 21 -17 42 13 50 21 53 88 22 34 -15 105 -47 157 -70z m-154 -215
c73 -42 136 -80 139 -86 8 -13 -21 -59 -38 -59 -17 0 -308 158 -331 180 -18
18 -18 20 -3 44 17 25 18 25 58 11 23 -8 101 -49 175 -90z"/>
<path d="M2330 2610 c-19 -11 -73 -35 -120 -54 -250 -101 -345 -144 -348 -158
-2 -8 6 -26 17 -39 19 -23 20 -23 48 -8 27 16 417 179 428 179 3 0 5 -5 5 -11
0 -6 16 -29 35 -52 19 -22 35 -44 35 -48 0 -5 -84 -49 -187 -100 -251 -122
-261 -130 -228 -173 14 -19 19 -17 147 44 190 90 372 180 381 189 5 5 2 15 -5
22 -17 18 -122 177 -137 207 -14 27 -25 27 -71 2z"/>
<path d="M2525 2340 c-16 -4 -51 -17 -77 -28 -48 -21 -57 -37 -42 -76 8 -22
27 -20 83 9 54 28 78 25 87 -12 8 -30 -2 -41 -81 -87 -220 -128 -255 -142
-283 -114 -21 21 -13 46 18 56 37 13 52 58 26 77 -24 18 -49 9 -98 -34 -56
-50 -57 -86 -3 -141 74 -76 124 -67 332 57 192 114 217 146 172 219 -35 58
-85 85 -134 74z"/>
<path d="M7257 2104 c-56 -55 -76 -79 -68 -87 18 -18 13 -25 -21 -32 -56 -12
-122 -67 -134 -111 -10 -37 22 -79 127 -171 198 -173 235 -191 306 -154 47 24
93 74 93 102 0 11 -6 33 -14 48 -16 30 -223 216 -275 247 -17 10 -31 21 -31
24 0 3 22 27 48 53 l48 47 153 -105 c84 -58 173 -120 197 -137 46 -33 61 -30
84 13 10 18 -20 43 -287 232 -67 48 -125 91 -128 97 -10 17 -17 12 -98 -66z
m6 -261 c38 -29 101 -82 140 -119 59 -54 69 -68 60 -82 -19 -32 -57 -26 -115
20 -124 96 -218 181 -218 196 0 24 30 51 48 45 10 -4 48 -30 85 -60z"/>
<path d="M2699 2042 c-46 -37 -131 -103 -188 -147 -170 -131 -159 -120 -137
-144 11 -12 24 -21 30 -21 10 0 125 84 214 156 47 39 41 10 -13 -56 -24 -30
-65 -81 -90 -112 l-45 -57 22 -22 c13 -11 33 -28 45 -36 24 -16 13 -24 193
127 61 50 188 150 234 183 18 13 18 15 1 40 -9 15 -23 27 -29 27 -7 0 -74 -52
-150 -115 -128 -106 -168 -134 -150 -102 4 6 52 71 106 143 54 72 98 138 98
146 0 14 -21 37 -46 51 -6 3 -48 -24 -95 -61z"/>
<path d="M2950 1855 c-19 -13 -103 -89 -187 -167 l-152 -143 29 -29 29 -30 24
25 c57 59 255 247 285 272 32 25 35 26 63 12 16 -9 29 -24 29 -34 0 -12 -64
-81 -160 -173 l-161 -153 27 -23 c14 -13 32 -22 39 -20 25 6 334 316 341 342
11 44 -4 75 -54 111 -57 42 -101 45 -152 10z"/>
<path d="M6805 1753 c-16 -9 -41 -24 -54 -34 -13 -11 -40 -19 -60 -19 -20 0
-43 -4 -51 -10 -12 -7 -12 -12 4 -28 9 -11 30 -25 45 -32 16 -6 56 -46 90 -88
34 -42 94 -112 134 -156 70 -75 76 -79 123 -83 57 -6 98 10 139 54 55 61 30
110 -155 296 -104 104 -120 117 -151 117 -19 -1 -47 -8 -64 -17z m146 -152
c133 -137 165 -180 152 -199 -5 -10 -22 -18 -37 -20 -22 -3 -39 9 -92 65 -37
37 -90 97 -120 132 l-54 65 22 23 c12 13 26 23 32 23 6 0 50 -40 97 -89z"/>
<path d="M3257 1671 c-17 -29 -58 -81 -217 -273 -44 -53 -80 -99 -80 -102 0
-3 14 -13 31 -21 39 -20 40 -19 134 109 103 140 113 128 35 -46 -27 -61 -50
-115 -50 -118 0 -10 76 -50 94 -50 8 0 47 42 87 93 206 267 268 338 244 280
-17 -42 -17 -51 5 -58 12 -4 42 -16 66 -27 l45 -19 -27 -49 c-43 -79 -49 -82
-119 -58 -56 19 -60 19 -72 2 -24 -33 -15 -49 37 -67 28 -10 50 -23 50 -30 0
-7 -16 -36 -35 -64 l-35 -53 -53 21 c-80 33 -89 34 -103 14 -20 -27 -17 -43 9
-51 12 -4 58 -24 102 -45 l80 -38 23 27 c27 31 217 331 240 380 10 19 12 35 6
40 -5 4 -54 28 -109 52 -55 24 -111 52 -124 62 -49 37 -63 28 -172 -117 -96
-128 -130 -163 -109 -112 5 12 32 78 60 147 67 162 65 157 45 180 -27 30 -67
26 -88 -9z"/>
<path d="M6575 1617 c-16 -8 -45 -26 -62 -41 -52 -43 -46 -86 22 -183 29 -43
83 -121 119 -174 35 -53 71 -99 78 -101 18 -7 84 16 80 28 -1 5 -57 83 -124
174 -66 90 -123 171 -125 180 -5 19 42 54 61 47 13 -5 137 -168 225 -294 24
-35 48 -63 53 -63 5 0 23 7 39 16 21 10 29 20 25 31 -4 9 -45 68 -93 132 -48
64 -101 135 -118 157 -65 88 -122 116 -180 91z"/>
<path d="M6345 1496 c-28 -13 -74 -31 -103 -40 -29 -10 -52 -20 -52 -22 0 -10
23 -49 33 -56 6 -3 40 4 75 18 35 13 68 24 72 24 8 0 80 -109 80 -121 0 -4
-23 -15 -52 -25 -59 -22 -66 -32 -40 -64 l19 -24 49 20 c27 10 52 20 56 22 11
5 81 -105 74 -117 -4 -5 -32 -19 -63 -31 -31 -12 -60 -23 -65 -26 -11 -7 20
-64 35 -64 19 0 217 83 217 91 0 4 -43 79 -96 166 -53 87 -109 184 -125 216
-33 65 -40 67 -114 33z"/>
<path d="M3885 1389 c-34 -16 -68 -76 -72 -127 -4 -41 1 -58 36 -124 23 -43
41 -88 41 -101 0 -33 -32 -59 -67 -55 -24 2 -29 8 -33 38 -4 24 -13 39 -32 50
-35 19 -49 7 -55 -52 -5 -40 -2 -47 26 -71 70 -59 155 -60 211 -2 27 28 34 44
38 87 4 47 0 62 -37 131 -47 90 -49 106 -18 142 20 24 25 25 49 14 23 -10 27
-19 30 -58 3 -44 5 -46 38 -55 l36 -8 -4 -67 c-2 -36 -10 -105 -18 -154 -20
-126 -21 -122 34 -136 26 -7 55 -13 66 -14 32 -3 268 447 245 467 -2 2 -16 6
-32 10 -25 6 -29 3 -46 -37 l-19 -44 -58 12 c-62 13 -66 18 -53 80 3 16 -4 22
-35 30 -30 7 -41 6 -44 -3 -6 -19 -30 -14 -42 8 -22 41 -133 64 -185 39z"/>
<path d="M6043 1390 c-13 -5 -23 -17 -23 -25 0 -9 25 -77 55 -152 31 -74 54
-140 53 -145 -2 -6 -51 52 -109 128 -102 134 -107 139 -145 142 -65 4 -72 -7
-41 -75 14 -32 47 -114 72 -183 86 -233 84 -230 114 -230 52 0 55 11 28 86
-14 38 -35 91 -46 118 -40 91 -17 78 69 -38 55 -75 92 -115 104 -116 31 0 96
22 96 34 0 6 -38 107 -85 225 -47 118 -85 220 -85 228 0 15 -24 16 -57 3z"/>
<path d="M5645 1287 c-49 -11 -92 -22 -94 -24 -2 -1 2 -17 9 -34 13 -31 14
-31 64 -24 104 15 98 17 118 -53 19 -71 19 -71 -64 -86 -31 -6 -38 -11 -38
-30 0 -12 6 -29 13 -38 11 -14 18 -15 66 -2 63 17 64 16 82 -60 14 -57 12 -59
-72 -75 l-59 -12 0 -40 c0 -21 2 -39 4 -39 3 0 56 11 120 25 64 14 118 25 121
25 11 0 3 40 -45 208 -85 302 -77 282 -108 281 -15 -1 -67 -11 -117 -22z"/>
<path d="M4461 1266 c-10 -12 -49 -170 -81 -332 -17 -87 -21 -91 -69 -78 -45
12 -61 4 -61 -33 0 -27 30 -37 174 -53 106 -12 120 -9 114 31 -2 17 -12 25
-36 30 -18 4 -36 9 -39 13 -6 5 18 125 66 333 13 58 15 85 8 92 -15 15 -62 14
-76 -3z"/>
<path d="M4646 1248 c-3 -7 -7 -40 -10 -73 -4 -33 -11 -91 -16 -130 -24 -172
-33 -276 -24 -284 14 -13 74 -24 74 -14 0 5 9 59 20 119 10 60 22 145 26 189
3 44 13 104 21 134 13 45 13 55 2 62 -21 13 -89 11 -93 -3z"/>
<path d="M4845 1243 c-29 -7 -54 -33 -76 -75 -37 -73 -17 -128 85 -226 67 -65
83 -101 54 -130 -30 -30 -91 -4 -100 43 -8 43 -68 24 -68 -22 0 -64 56 -109
136 -107 81 2 130 55 128 140 -1 47 -25 86 -91 147 -74 68 -90 115 -49 142 34
23 64 6 68 -38 3 -31 5 -32 48 -32 l45 0 -2 38 -2 37 83 0 84 0 4 -62 c3 -35
4 -64 3 -65 -1 -2 -29 -6 -63 -9 l-62 -7 0 -33 0 -34 65 0 c74 0 79 -7 73 -91
l-3 -44 -70 -3 c-73 -3 -95 -15 -95 -54 0 -16 11 -18 131 -18 l132 0 -6 78
c-4 42 -9 157 -13 255 l-7 178 -121 -3 -121 -3 -9 -30 c-14 -42 -14 -42 -44
-7 -21 25 -37 33 -72 36 -25 3 -54 2 -65 -1z"/>
<path d="M5344 1216 c-33 -33 -35 -38 -32 -98 3 -62 3 -63 33 -66 49 -4 61 10
47 54 -8 27 -8 41 0 51 13 17 73 17 85 1 16 -21 37 -167 38 -258 0 -78 -2 -85
-20 -88 -29 -3 -45 10 -60 54 -12 35 -17 39 -47 39 -32 0 -33 -2 -36 -42 -4
-58 43 -112 106 -120 55 -7 125 19 153 58 19 27 20 34 9 97 -6 37 -17 108 -25
159 -26 164 -49 193 -153 193 -60 0 -66 -2 -98 -34z"/>
</g>
</svg>
